ISO-10303-21;
HEADER;
/* Generated by software containing ST-Developer
 * from STEP Tools, Inc. (www.steptools.com) 
 */
/* OPTION: using custom schema-name function */

FILE_DESCRIPTION(
/* description */ (''),
/* implementation_level */ '2;1');

FILE_NAME(
/* name */ 'P27-SMC-.stp',
/* time_stamp */ '2020-07-15T15:37:19+02:00',
/* author */ (''),
/* organization */ (''),
/* preprocessor_version */ 'ST-DEVELOPER v14',
/* originating_system */ 'SIEMENS PLM Software NX 8.0',
/* authorisation */ '');

FILE_SCHEMA (('AUTOMOTIVE_DESIGN { 1 0 10303 214 3 1 1 1 }'));
ENDSEC;

DATA;
#10=VALUE_REPRESENTATION_ITEM('number of annotations',COUNT_MEASURE(0.));
#11=VALUE_REPRESENTATION_ITEM('number of views',COUNT_MEASURE(0.));
#12=SHAPE_REPRESENTATION_RELATIONSHIP('None',
'relationship between 027002-04187_body-None and 027002-04187_body-None',
#36,#13);
#13=ADVANCED_BREP_SHAPE_REPRESENTATION('027002-04187_body-None',(#117,#118,
#119),#1818);
#14=SHAPE_ASPECT('','solid in 027002-04187_body',#27,.F.);
#15=SHAPE_ASPECT('','solid in 027002-04187_body',#27,.F.);
#16=SHAPE_ASPECT('','solid in 027002-04187_body',#27,.F.);
#17=DERIVED_UNIT_ELEMENT(#1826,3.);
#18=DERIVED_UNIT_ELEMENT(#1827,2.);
#19=NAME_ATTRIBUTE('CUBIC MILLIMETRE',#21);
#20=NAME_ATTRIBUTE('SQUARE MILLIMETRE',#22);
#21=DERIVED_UNIT((#17));
#22=DERIVED_UNIT((#18));
#23=SHAPE_DEFINITION_REPRESENTATION(#27,#36);
#24=SHAPE_DEFINITION_REPRESENTATION(#104,#37);
#25=SHAPE_DEFINITION_REPRESENTATION(#105,#38);
#26=SHAPE_DEFINITION_REPRESENTATION(#106,#39);
#27=PRODUCT_DEFINITION_SHAPE('','',#28);
#28=PRODUCT_DEFINITION(' ','',#30,#29);
#29=PRODUCT_DEFINITION_CONTEXT('part definition',#35,'design');
#30=PRODUCT_DEFINITION_FORMATION_WITH_SPECIFIED_SOURCE(' ',' ',#32,
 .NOT_KNOWN.);
#31=PRODUCT_RELATED_PRODUCT_CATEGORY('part','',(#32));
#32=PRODUCT('027002-04187_body','027002-04187_body',' ',(#33));
#33=PRODUCT_CONTEXT(' ',#35,'mechanical');
#34=APPLICATION_PROTOCOL_DEFINITION('international standard',
'automotive_design',2010,#35);
#35=APPLICATION_CONTEXT(
'core data for automotive mechanical design processes');
#36=SHAPE_REPRESENTATION('027002-04187_body-None',(#1125),#1818);
#37=SHAPE_REPRESENTATION('',(#117),#1818);
#38=SHAPE_REPRESENTATION('',(#118),#1818);
#39=SHAPE_REPRESENTATION('',(#119),#1818);
#40=PRESENTATION_LAYER_ASSIGNMENT('1','Layer 1',(#117,#118,#119));
#41=STYLED_ITEM('',(#44),#117);
#42=STYLED_ITEM('',(#45),#118);
#43=STYLED_ITEM('',(#46),#119);
#44=PRESENTATION_STYLE_ASSIGNMENT((#47));
#45=PRESENTATION_STYLE_ASSIGNMENT((#48));
#46=PRESENTATION_STYLE_ASSIGNMENT((#49));
#47=SURFACE_STYLE_USAGE(.BOTH.,#50);
#48=SURFACE_STYLE_USAGE(.BOTH.,#51);
#49=SURFACE_STYLE_USAGE(.BOTH.,#52);
#50=SURFACE_SIDE_STYLE('',(#53));
#51=SURFACE_SIDE_STYLE('',(#54));
#52=SURFACE_SIDE_STYLE('',(#55));
#53=SURFACE_STYLE_FILL_AREA(#56);
#54=SURFACE_STYLE_FILL_AREA(#57);
#55=SURFACE_STYLE_FILL_AREA(#58);
#56=FILL_AREA_STYLE('',(#59));
#57=FILL_AREA_STYLE('',(#60));
#58=FILL_AREA_STYLE('',(#61));
#59=FILL_AREA_STYLE_COLOUR('',#62);
#60=FILL_AREA_STYLE_COLOUR('',#63);
#61=FILL_AREA_STYLE_COLOUR('',#63);
#62=COLOUR_RGB('Obscure Gray',0.2,0.2,0.2);
#63=COLOUR_RGB('Pale Gray',0.8,0.8,0.8);
#64=PROPERTY_DEFINITION_REPRESENTATION(#92,#78);
#65=PROPERTY_DEFINITION_REPRESENTATION(#93,#79);
#66=PROPERTY_DEFINITION_REPRESENTATION(#94,#80);
#67=PROPERTY_DEFINITION_REPRESENTATION(#95,#81);
#68=PROPERTY_DEFINITION_REPRESENTATION(#96,#82);
#69=PROPERTY_DEFINITION_REPRESENTATION(#97,#83);
#70=PROPERTY_DEFINITION_REPRESENTATION(#98,#84);
#71=PROPERTY_DEFINITION_REPRESENTATION(#99,#85);
#72=PROPERTY_DEFINITION_REPRESENTATION(#100,#86);
#73=PROPERTY_DEFINITION_REPRESENTATION(#101,#87);
#74=PROPERTY_DEFINITION_REPRESENTATION(#102,#88);
#75=PROPERTY_DEFINITION_REPRESENTATION(#103,#89);
#76=PROPERTY_DEFINITION_REPRESENTATION(#107,#90);
#77=PROPERTY_DEFINITION_REPRESENTATION(#108,#91);
#78=REPRESENTATION('volume',(#109),#1818);
#79=REPRESENTATION('surface area',(#110),#1818);
#80=REPRESENTATION('centroid',(#1653),#1818);
#81=REPRESENTATION('volume',(#111),#1818);
#82=REPRESENTATION('surface area',(#112),#1818);
#83=REPRESENTATION('centroid',(#1734),#1818);
#84=REPRESENTATION('volume',(#113),#1818);
#85=REPRESENTATION('surface area',(#114),#1818);
#86=REPRESENTATION('centroid',(#1815),#1818);
#87=REPRESENTATION('volume',(#115),#1818);
#88=REPRESENTATION('surface area',(#116),#1818);
#89=REPRESENTATION('centroid',(#1816),#1818);
#90=REPRESENTATION('',(#10),#1818);
#91=REPRESENTATION('',(#11),#1818);
#92=PROPERTY_DEFINITION('geometric validation property',
'volume of solid in 027002-04187_body',#14);
#93=PROPERTY_DEFINITION('geometric validation property',
'surface area of solid in 027002-04187_body',#14);
#94=PROPERTY_DEFINITION('geometric validation property',
'centroid of solid in 027002-04187_body',#14);
#95=PROPERTY_DEFINITION('geometric validation property',
'volume of solid in 027002-04187_body',#15);
#96=PROPERTY_DEFINITION('geometric validation property',
'surface area of solid in 027002-04187_body',#15);
#97=PROPERTY_DEFINITION('geometric validation property',
'centroid of solid in 027002-04187_body',#15);
#98=PROPERTY_DEFINITION('geometric validation property',
'volume of solid in 027002-04187_body',#16);
#99=PROPERTY_DEFINITION('geometric validation property',
'surface area of solid in 027002-04187_body',#16);
#100=PROPERTY_DEFINITION('geometric validation property',
'centroid of solid in 027002-04187_body',#16);
#101=PROPERTY_DEFINITION('geometric validation property',
'volume of 027002-04187_body',#27);
#102=PROPERTY_DEFINITION('geometric validation property',
'surface area of 027002-04187_body',#27);
#103=PROPERTY_DEFINITION('geometric validation property',
'centroid of 027002-04187_body',#27);
#104=PROPERTY_DEFINITION('','shape for validation of solid',#14);
#105=PROPERTY_DEFINITION('','shape for validation of solid',#15);
#106=PROPERTY_DEFINITION('','shape for validation of solid',#16);
#107=PROPERTY_DEFINITION('pmi validation property','',#27);
#108=PROPERTY_DEFINITION('pmi validation property','',#27);
#109=MEASURE_REPRESENTATION_ITEM('volume measure',VOLUME_MEASURE(79.0372661741368),
#21);
#110=MEASURE_REPRESENTATION_ITEM('surface area measure',AREA_MEASURE(125.019400643717),
#22);
#111=MEASURE_REPRESENTATION_ITEM('volume measure',VOLUME_MEASURE(1.13913540170629),
#21);
#112=MEASURE_REPRESENTATION_ITEM('surface area measure',AREA_MEASURE(16.8526954479303),
#22);
#113=MEASURE_REPRESENTATION_ITEM('volume measure',VOLUME_MEASURE(1.15771545158782),
#21);
#114=MEASURE_REPRESENTATION_ITEM('surface area measure',AREA_MEASURE(17.1254150660711),
#22);
#115=MEASURE_REPRESENTATION_ITEM('volume measure',VOLUME_MEASURE(81.3341170274309),
#21);
#116=MEASURE_REPRESENTATION_ITEM('surface area measure',AREA_MEASURE(158.997511157718),
#22);
#117=MANIFOLD_SOLID_BREP('',#120);
#118=MANIFOLD_SOLID_BREP('',#121);
#119=MANIFOLD_SOLID_BREP('',#122);
#120=CLOSED_SHELL('',(#183,#184,#185,#186,#187,#188,#189,#190,#191,#192,
#193,#194,#195,#196,#197,#198,#199,#200,#201,#202,#203,#204,#205,#206,#207,
#208,#209,#210,#211,#212));
#121=CLOSED_SHELL('',(#213,#214,#215,#216,#217,#218,#219,#220,#221,#222,
#223,#224,#225,#226,#227));
#122=CLOSED_SHELL('',(#228,#229,#230,#231,#232,#233,#234,#235,#236,#237,
#238,#239,#240,#241,#242));
#123=SPHERICAL_SURFACE('',#1152,0.08);
#124=SPHERICAL_SURFACE('',#1164,0.08);
#125=SPHERICAL_SURFACE('',#1166,0.08);
#126=SPHERICAL_SURFACE('',#1172,0.08);
#127=CIRCLE('',#1146,0.08);
#128=CIRCLE('',#1150,0.08);
#129=CIRCLE('',#1151,0.08);
#130=CIRCLE('',#1155,0.08);
#131=CIRCLE('',#1157,0.08);
#132=CIRCLE('',#1159,0.08);
#133=CIRCLE('',#1161,0.08);
#134=CIRCLE('',#1163,0.08);
#135=CIRCLE('',#1165,0.08);
#136=CIRCLE('',#1167,0.08);
#137=CIRCLE('',#1169,0.08);
#138=CIRCLE('',#1171,0.08);
#139=CIRCLE('',#1178,0.250176763175533);
#140=CIRCLE('',#1179,0.250176763175533);
#141=CIRCLE('',#1182,0.250176763175532);
#142=CIRCLE('',#1183,0.250176763175532);
#143=CIRCLE('',#1188,0.1);
#144=CIRCLE('',#1189,0.1);
#145=CIRCLE('',#1192,0.1);
#146=CIRCLE('',#1193,0.1);
#147=CIRCLE('',#1201,0.25);
#148=CIRCLE('',#1202,0.25);
#149=CIRCLE('',#1205,0.25);
#150=CIRCLE('',#1206,0.25);
#151=CIRCLE('',#1211,0.1);
#152=CIRCLE('',#1212,0.1);
#153=CIRCLE('',#1215,0.1);
#154=CIRCLE('',#1216,0.1);
#155=CYLINDRICAL_SURFACE('',#1145,0.08);
#156=CYLINDRICAL_SURFACE('',#1147,0.08);
#157=CYLINDRICAL_SURFACE('',#1149,0.08);
#158=CYLINDRICAL_SURFACE('',#1154,0.08);
#159=CYLINDRICAL_SURFACE('',#1156,0.08);
#160=CYLINDRICAL_SURFACE('',#1158,0.08);
#161=CYLINDRICAL_SURFACE('',#1160,0.08);
#162=CYLINDRICAL_SURFACE('',#1162,0.08);
#163=CYLINDRICAL_SURFACE('',#1168,0.08);
#164=CYLINDRICAL_SURFACE('',#1170,0.08);
#165=CYLINDRICAL_SURFACE('',#1174,0.08);
#166=CYLINDRICAL_SURFACE('',#1175,0.08);
#167=CYLINDRICAL_SURFACE('',#1180,0.250176763175533);
#168=CYLINDRICAL_SURFACE('',#1184,0.250176763175532);
#169=CYLINDRICAL_SURFACE('',#1190,0.1);
#170=CYLINDRICAL_SURFACE('',#1194,0.1);
#171=CYLINDRICAL_SURFACE('',#1203,0.25);
#172=CYLINDRICAL_SURFACE('',#1207,0.25);
#173=CYLINDRICAL_SURFACE('',#1213,0.1);
#174=CYLINDRICAL_SURFACE('',#1217,0.1);
#175=ELLIPSE('',#1129,0.080610015556028,0.08);
#176=ELLIPSE('',#1130,0.080610015556028,0.08);
#177=ELLIPSE('',#1135,0.080610015556028,0.08);
#178=ELLIPSE('',#1136,0.080610015556028,0.08);
#179=ELLIPSE('',#1144,0.080610015556028,0.08);
#180=ELLIPSE('',#1148,0.080610015556028,0.08);
#181=ELLIPSE('',#1153,0.080610015556028,0.08);
#182=ELLIPSE('',#1173,0.080610015556028,0.08);
#183=ADVANCED_FACE('',(#279),#243,.T.);
#184=ADVANCED_FACE('',(#280),#244,.T.);
#185=ADVANCED_FACE('',(#281),#245,.T.);
#186=ADVANCED_FACE('',(#282),#246,.T.);
#187=ADVANCED_FACE('',(#283),#247,.T.);
#188=ADVANCED_FACE('',(#284),#248,.T.);
#189=ADVANCED_FACE('',(#285),#249,.T.);
#190=ADVANCED_FACE('',(#286),#250,.T.);
#191=ADVANCED_FACE('',(#287),#251,.T.);
#192=ADVANCED_FACE('',(#288),#252,.T.);
#193=ADVANCED_FACE('',(#289),#253,.T.);
#194=ADVANCED_FACE('',(#290),#254,.F.);
#195=ADVANCED_FACE('',(#291),#255,.F.);
#196=ADVANCED_FACE('',(#292),#256,.T.);
#197=ADVANCED_FACE('',(#293),#155,.T.);
#198=ADVANCED_FACE('',(#294),#156,.T.);
#199=ADVANCED_FACE('',(#295),#157,.T.);
#200=ADVANCED_FACE('',(#296),#123,.T.);
#201=ADVANCED_FACE('',(#297),#158,.T.);
#202=ADVANCED_FACE('',(#298),#159,.T.);
#203=ADVANCED_FACE('',(#299),#160,.T.);
#204=ADVANCED_FACE('',(#300),#161,.T.);
#205=ADVANCED_FACE('',(#301),#162,.T.);
#206=ADVANCED_FACE('',(#302),#124,.T.);
#207=ADVANCED_FACE('',(#303),#125,.T.);
#208=ADVANCED_FACE('',(#304),#163,.T.);
#209=ADVANCED_FACE('',(#305),#164,.T.);
#210=ADVANCED_FACE('',(#306),#126,.T.);
#211=ADVANCED_FACE('',(#307),#165,.T.);
#212=ADVANCED_FACE('',(#308),#166,.T.);
#213=ADVANCED_FACE('',(#309),#257,.T.);
#214=ADVANCED_FACE('',(#310),#258,.T.);
#215=ADVANCED_FACE('',(#311),#167,.T.);
#216=ADVANCED_FACE('',(#312),#259,.T.);
#217=ADVANCED_FACE('',(#313),#168,.T.);
#218=ADVANCED_FACE('',(#314),#260,.T.);
#219=ADVANCED_FACE('',(#315),#261,.T.);
#220=ADVANCED_FACE('',(#316),#262,.T.);
#221=ADVANCED_FACE('',(#317),#169,.F.);
#222=ADVANCED_FACE('',(#318),#263,.T.);
#223=ADVANCED_FACE('',(#319),#170,.F.);
#224=ADVANCED_FACE('',(#320),#264,.F.);
#225=ADVANCED_FACE('',(#321),#265,.T.);
#226=ADVANCED_FACE('',(#322),#266,.F.);
#227=ADVANCED_FACE('',(#323),#267,.F.);
#228=ADVANCED_FACE('',(#324),#268,.T.);
#229=ADVANCED_FACE('',(#325),#269,.T.);
#230=ADVANCED_FACE('',(#326),#171,.T.);
#231=ADVANCED_FACE('',(#327),#270,.T.);
#232=ADVANCED_FACE('',(#328),#172,.T.);
#233=ADVANCED_FACE('',(#329),#271,.T.);
#234=ADVANCED_FACE('',(#330),#272,.T.);
#235=ADVANCED_FACE('',(#331),#273,.T.);
#236=ADVANCED_FACE('',(#332),#173,.F.);
#237=ADVANCED_FACE('',(#333),#274,.T.);
#238=ADVANCED_FACE('',(#334),#174,.F.);
#239=ADVANCED_FACE('',(#335),#275,.F.);
#240=ADVANCED_FACE('',(#336),#276,.T.);
#241=ADVANCED_FACE('',(#337),#277,.F.);
#242=ADVANCED_FACE('',(#338),#278,.F.);
#243=PLANE('',#1126);
#244=PLANE('',#1127);
#245=PLANE('',#1128);
#246=PLANE('',#1131);
#247=PLANE('',#1132);
#248=PLANE('',#1133);
#249=PLANE('',#1134);
#250=PLANE('',#1137);
#251=PLANE('',#1138);
#252=PLANE('',#1139);
#253=PLANE('',#1140);
#254=PLANE('',#1141);
#255=PLANE('',#1142);
#256=PLANE('',#1143);
#257=PLANE('',#1176);
#258=PLANE('',#1177);
#259=PLANE('',#1181);
#260=PLANE('',#1185);
#261=PLANE('',#1186);
#262=PLANE('',#1187);
#263=PLANE('',#1191);
#264=PLANE('',#1195);
#265=PLANE('',#1196);
#266=PLANE('',#1197);
#267=PLANE('',#1198);
#268=PLANE('',#1199);
#269=PLANE('',#1200);
#270=PLANE('',#1204);
#271=PLANE('',#1208);
#272=PLANE('',#1209);
#273=PLANE('',#1210);
#274=PLANE('',#1214);
#275=PLANE('',#1218);
#276=PLANE('',#1219);
#277=PLANE('',#1220);
#278=PLANE('',#1221);
#279=FACE_OUTER_BOUND('',#339,.T.);
#280=FACE_OUTER_BOUND('',#340,.T.);
#281=FACE_OUTER_BOUND('',#341,.T.);
#282=FACE_OUTER_BOUND('',#342,.T.);
#283=FACE_OUTER_BOUND('',#343,.T.);
#284=FACE_OUTER_BOUND('',#344,.T.);
#285=FACE_OUTER_BOUND('',#345,.T.);
#286=FACE_OUTER_BOUND('',#346,.T.);
#287=FACE_OUTER_BOUND('',#347,.T.);
#288=FACE_OUTER_BOUND('',#348,.T.);
#289=FACE_OUTER_BOUND('',#349,.T.);
#290=FACE_OUTER_BOUND('',#350,.T.);
#291=FACE_OUTER_BOUND('',#351,.T.);
#292=FACE_OUTER_BOUND('',#352,.T.);
#293=FACE_OUTER_BOUND('',#353,.T.);
#294=FACE_OUTER_BOUND('',#354,.T.);
#295=FACE_OUTER_BOUND('',#355,.T.);
#296=FACE_OUTER_BOUND('',#356,.T.);
#297=FACE_OUTER_BOUND('',#357,.T.);
#298=FACE_OUTER_BOUND('',#358,.T.);
#299=FACE_OUTER_BOUND('',#359,.T.);
#300=FACE_OUTER_BOUND('',#360,.T.);
#301=FACE_OUTER_BOUND('',#361,.T.);
#302=FACE_OUTER_BOUND('',#362,.T.);
#303=FACE_OUTER_BOUND('',#363,.T.);
#304=FACE_OUTER_BOUND('',#364,.T.);
#305=FACE_OUTER_BOUND('',#365,.T.);
#306=FACE_OUTER_BOUND('',#366,.T.);
#307=FACE_OUTER_BOUND('',#367,.T.);
#308=FACE_OUTER_BOUND('',#368,.T.);
#309=FACE_OUTER_BOUND('',#369,.T.);
#310=FACE_OUTER_BOUND('',#370,.T.);
#311=FACE_OUTER_BOUND('',#371,.T.);
#312=FACE_OUTER_BOUND('',#372,.T.);
#313=FACE_OUTER_BOUND('',#373,.T.);
#314=FACE_OUTER_BOUND('',#374,.T.);
#315=FACE_OUTER_BOUND('',#375,.T.);
#316=FACE_OUTER_BOUND('',#376,.T.);
#317=FACE_OUTER_BOUND('',#377,.T.);
#318=FACE_OUTER_BOUND('',#378,.T.);
#319=FACE_OUTER_BOUND('',#379,.T.);
#320=FACE_OUTER_BOUND('',#380,.T.);
#321=FACE_OUTER_BOUND('',#381,.T.);
#322=FACE_OUTER_BOUND('',#382,.T.);
#323=FACE_OUTER_BOUND('',#383,.T.);
#324=FACE_OUTER_BOUND('',#384,.T.);
#325=FACE_OUTER_BOUND('',#385,.T.);
#326=FACE_OUTER_BOUND('',#386,.T.);
#327=FACE_OUTER_BOUND('',#387,.T.);
#328=FACE_OUTER_BOUND('',#388,.T.);
#329=FACE_OUTER_BOUND('',#389,.T.);
#330=FACE_OUTER_BOUND('',#390,.T.);
#331=FACE_OUTER_BOUND('',#391,.T.);
#332=FACE_OUTER_BOUND('',#392,.T.);
#333=FACE_OUTER_BOUND('',#393,.T.);
#334=FACE_OUTER_BOUND('',#394,.T.);
#335=FACE_OUTER_BOUND('',#395,.T.);
#336=FACE_OUTER_BOUND('',#396,.T.);
#337=FACE_OUTER_BOUND('',#397,.T.);
#338=FACE_OUTER_BOUND('',#398,.T.);
#339=EDGE_LOOP('',(#399,#400,#401,#402));
#340=EDGE_LOOP('',(#403,#404,#405,#406));
#341=EDGE_LOOP('',(#407,#408,#409,#410));
#342=EDGE_LOOP('',(#411,#412,#413,#414,#415,#416));
#343=EDGE_LOOP('',(#417,#418,#419,#420));
#344=EDGE_LOOP('',(#421,#422,#423,#424));
#345=EDGE_LOOP('',(#425,#426,#427,#428));
#346=EDGE_LOOP('',(#429,#430,#431,#432,#433,#434));
#347=EDGE_LOOP('',(#435,#436,#437,#438));
#348=EDGE_LOOP('',(#439,#440,#441,#442));
#349=EDGE_LOOP('',(#443,#444,#445,#446));
#350=EDGE_LOOP('',(#447,#448,#449,#450));
#351=EDGE_LOOP('',(#451,#452,#453,#454,#455,#456,#457,#458));
#352=EDGE_LOOP('',(#459,#460,#461,#462,#463,#464,#465,#466));
#353=EDGE_LOOP('',(#467,#468,#469,#470));
#354=EDGE_LOOP('',(#471,#472,#473,#474));
#355=EDGE_LOOP('',(#475,#476,#477,#478));
#356=EDGE_LOOP('',(#479,#480,#481));
#357=EDGE_LOOP('',(#482,#483,#484,#485));
#358=EDGE_LOOP('',(#486,#487,#488,#489));
#359=EDGE_LOOP('',(#490,#491,#492,#493));
#360=EDGE_LOOP('',(#494,#495,#496,#497));
#361=EDGE_LOOP('',(#498,#499,#500,#501));
#362=EDGE_LOOP('',(#502,#503,#504));
#363=EDGE_LOOP('',(#505,#506,#507));
#364=EDGE_LOOP('',(#508,#509,#510,#511));
#365=EDGE_LOOP('',(#512,#513,#514,#515));
#366=EDGE_LOOP('',(#516,#517,#518));
#367=EDGE_LOOP('',(#519,#520,#521,#522));
#368=EDGE_LOOP('',(#523,#524,#525,#526));
#369=EDGE_LOOP('',(#527,#528,#529,#530));
#370=EDGE_LOOP('',(#531,#532,#533,#534));
#371=EDGE_LOOP('',(#535,#536,#537,#538));
#372=EDGE_LOOP('',(#539,#540,#541,#542));
#373=EDGE_LOOP('',(#543,#544,#545,#546));
#374=EDGE_LOOP('',(#547,#548,#549,#550));
#375=EDGE_LOOP('',(#551,#552,#553,#554));
#376=EDGE_LOOP('',(#555,#556,#557,#558));
#377=EDGE_LOOP('',(#559,#560,#561,#562));
#378=EDGE_LOOP('',(#563,#564,#565,#566));
#379=EDGE_LOOP('',(#567,#568,#569,#570));
#380=EDGE_LOOP('',(#571,#572,#573,#574,#575,#576,#577,#578,#579,#580,#581,
#582,#583));
#381=EDGE_LOOP('',(#584,#585,#586,#587,#588,#589,#590,#591,#592,#593,#594,
#595,#596));
#382=EDGE_LOOP('',(#597,#598,#599,#600));
#383=EDGE_LOOP('',(#601,#602,#603,#604));
#384=EDGE_LOOP('',(#605,#606,#607,#608));
#385=EDGE_LOOP('',(#609,#610,#611,#612));
#386=EDGE_LOOP('',(#613,#614,#615,#616));
#387=EDGE_LOOP('',(#617,#618,#619,#620));
#388=EDGE_LOOP('',(#621,#622,#623,#624));
#389=EDGE_LOOP('',(#625,#626,#627,#628));
#390=EDGE_LOOP('',(#629,#630,#631,#632));
#391=EDGE_LOOP('',(#633,#634,#635,#636));
#392=EDGE_LOOP('',(#637,#638,#639,#640));
#393=EDGE_LOOP('',(#641,#642,#643,#644));
#394=EDGE_LOOP('',(#645,#646,#647,#648));
#395=EDGE_LOOP('',(#649,#650,#651,#652,#653,#654,#655,#656,#657,#658,#659,
#660,#661));
#396=EDGE_LOOP('',(#662,#663,#664,#665,#666,#667,#668,#669,#670,#671,#672,
#673,#674));
#397=EDGE_LOOP('',(#675,#676,#677,#678));
#398=EDGE_LOOP('',(#679,#680,#681,#682));
#399=ORIENTED_EDGE('',*,*,#771,.T.);
#400=ORIENTED_EDGE('',*,*,#772,.T.);
#401=ORIENTED_EDGE('',*,*,#773,.T.);
#402=ORIENTED_EDGE('',*,*,#774,.T.);
#403=ORIENTED_EDGE('',*,*,#775,.T.);
#404=ORIENTED_EDGE('',*,*,#776,.T.);
#405=ORIENTED_EDGE('',*,*,#777,.T.);
#406=ORIENTED_EDGE('',*,*,#778,.T.);
#407=ORIENTED_EDGE('',*,*,#779,.T.);
#408=ORIENTED_EDGE('',*,*,#780,.T.);
#409=ORIENTED_EDGE('',*,*,#775,.F.);
#410=ORIENTED_EDGE('',*,*,#781,.T.);
#411=ORIENTED_EDGE('',*,*,#782,.T.);
#412=ORIENTED_EDGE('',*,*,#783,.T.);
#413=ORIENTED_EDGE('',*,*,#779,.F.);
#414=ORIENTED_EDGE('',*,*,#784,.T.);
#415=ORIENTED_EDGE('',*,*,#785,.T.);
#416=ORIENTED_EDGE('',*,*,#786,.T.);
#417=ORIENTED_EDGE('',*,*,#786,.F.);
#418=ORIENTED_EDGE('',*,*,#787,.T.);
#419=ORIENTED_EDGE('',*,*,#788,.T.);
#420=ORIENTED_EDGE('',*,*,#789,.T.);
#421=ORIENTED_EDGE('',*,*,#788,.F.);
#422=ORIENTED_EDGE('',*,*,#790,.T.);
#423=ORIENTED_EDGE('',*,*,#791,.T.);
#424=ORIENTED_EDGE('',*,*,#792,.T.);
#425=ORIENTED_EDGE('',*,*,#791,.F.);
#426=ORIENTED_EDGE('',*,*,#793,.T.);
#427=ORIENTED_EDGE('',*,*,#794,.T.);
#428=ORIENTED_EDGE('',*,*,#795,.T.);
#429=ORIENTED_EDGE('',*,*,#796,.T.);
#430=ORIENTED_EDGE('',*,*,#797,.T.);
#431=ORIENTED_EDGE('',*,*,#798,.T.);
#432=ORIENTED_EDGE('',*,*,#794,.F.);
#433=ORIENTED_EDGE('',*,*,#799,.T.);
#434=ORIENTED_EDGE('',*,*,#800,.T.);
#435=ORIENTED_EDGE('',*,*,#801,.T.);
#436=ORIENTED_EDGE('',*,*,#802,.T.);
#437=ORIENTED_EDGE('',*,*,#796,.F.);
#438=ORIENTED_EDGE('',*,*,#803,.T.);
#439=ORIENTED_EDGE('',*,*,#804,.T.);
#440=ORIENTED_EDGE('',*,*,#805,.T.);
#441=ORIENTED_EDGE('',*,*,#801,.F.);
#442=ORIENTED_EDGE('',*,*,#806,.T.);
#443=ORIENTED_EDGE('',*,*,#807,.T.);
#444=ORIENTED_EDGE('',*,*,#808,.T.);
#445=ORIENTED_EDGE('',*,*,#809,.F.);
#446=ORIENTED_EDGE('',*,*,#810,.T.);
#447=ORIENTED_EDGE('',*,*,#811,.F.);
#448=ORIENTED_EDGE('',*,*,#812,.T.);
#449=ORIENTED_EDGE('',*,*,#813,.T.);
#450=ORIENTED_EDGE('',*,*,#814,.T.);
#451=ORIENTED_EDGE('',*,*,#798,.F.);
#452=ORIENTED_EDGE('',*,*,#815,.T.);
#453=ORIENTED_EDGE('',*,*,#811,.T.);
#454=ORIENTED_EDGE('',*,*,#816,.T.);
#455=ORIENTED_EDGE('',*,*,#782,.F.);
#456=ORIENTED_EDGE('',*,*,#789,.F.);
#457=ORIENTED_EDGE('',*,*,#792,.F.);
#458=ORIENTED_EDGE('',*,*,#795,.F.);
#459=ORIENTED_EDGE('',*,*,#809,.T.);
#460=ORIENTED_EDGE('',*,*,#817,.T.);
#461=ORIENTED_EDGE('',*,*,#799,.F.);
#462=ORIENTED_EDGE('',*,*,#793,.F.);
#463=ORIENTED_EDGE('',*,*,#790,.F.);
#464=ORIENTED_EDGE('',*,*,#787,.F.);
#465=ORIENTED_EDGE('',*,*,#785,.F.);
#466=ORIENTED_EDGE('',*,*,#818,.T.);
#467=ORIENTED_EDGE('',*,*,#784,.F.);
#468=ORIENTED_EDGE('',*,*,#781,.F.);
#469=ORIENTED_EDGE('',*,*,#819,.F.);
#470=ORIENTED_EDGE('',*,*,#818,.F.);
#471=ORIENTED_EDGE('',*,*,#819,.T.);
#472=ORIENTED_EDGE('',*,*,#778,.F.);
#473=ORIENTED_EDGE('',*,*,#820,.F.);
#474=ORIENTED_EDGE('',*,*,#810,.F.);
#475=ORIENTED_EDGE('',*,*,#783,.F.);
#476=ORIENTED_EDGE('',*,*,#816,.F.);
#477=ORIENTED_EDGE('',*,*,#821,.F.);
#478=ORIENTED_EDGE('',*,*,#780,.F.);
#479=ORIENTED_EDGE('',*,*,#822,.F.);
#480=ORIENTED_EDGE('',*,*,#820,.T.);
#481=ORIENTED_EDGE('',*,*,#823,.F.);
#482=ORIENTED_EDGE('',*,*,#800,.F.);
#483=ORIENTED_EDGE('',*,*,#817,.F.);
#484=ORIENTED_EDGE('',*,*,#824,.F.);
#485=ORIENTED_EDGE('',*,*,#803,.F.);
#486=ORIENTED_EDGE('',*,*,#821,.T.);
#487=ORIENTED_EDGE('',*,*,#814,.F.);
#488=ORIENTED_EDGE('',*,*,#825,.F.);
#489=ORIENTED_EDGE('',*,*,#776,.F.);
#490=ORIENTED_EDGE('',*,*,#823,.T.);
#491=ORIENTED_EDGE('',*,*,#777,.F.);
#492=ORIENTED_EDGE('',*,*,#826,.F.);
#493=ORIENTED_EDGE('',*,*,#771,.F.);
#494=ORIENTED_EDGE('',*,*,#822,.T.);
#495=ORIENTED_EDGE('',*,*,#774,.F.);
#496=ORIENTED_EDGE('',*,*,#827,.F.);
#497=ORIENTED_EDGE('',*,*,#807,.F.);
#498=ORIENTED_EDGE('',*,*,#824,.T.);
#499=ORIENTED_EDGE('',*,*,#808,.F.);
#500=ORIENTED_EDGE('',*,*,#828,.F.);
#501=ORIENTED_EDGE('',*,*,#806,.F.);
#502=ORIENTED_EDGE('',*,*,#826,.T.);
#503=ORIENTED_EDGE('',*,*,#825,.T.);
#504=ORIENTED_EDGE('',*,*,#829,.F.);
#505=ORIENTED_EDGE('',*,*,#828,.T.);
#506=ORIENTED_EDGE('',*,*,#827,.T.);
#507=ORIENTED_EDGE('',*,*,#830,.F.);
#508=ORIENTED_EDGE('',*,*,#829,.T.);
#509=ORIENTED_EDGE('',*,*,#813,.F.);
#510=ORIENTED_EDGE('',*,*,#831,.F.);
#511=ORIENTED_EDGE('',*,*,#772,.F.);
#512=ORIENTED_EDGE('',*,*,#830,.T.);
#513=ORIENTED_EDGE('',*,*,#773,.F.);
#514=ORIENTED_EDGE('',*,*,#832,.F.);
#515=ORIENTED_EDGE('',*,*,#804,.F.);
#516=ORIENTED_EDGE('',*,*,#832,.T.);
#517=ORIENTED_EDGE('',*,*,#831,.T.);
#518=ORIENTED_EDGE('',*,*,#833,.F.);
#519=ORIENTED_EDGE('',*,*,#833,.T.);
#520=ORIENTED_EDGE('',*,*,#812,.F.);
#521=ORIENTED_EDGE('',*,*,#834,.F.);
#522=ORIENTED_EDGE('',*,*,#805,.F.);
#523=ORIENTED_EDGE('',*,*,#834,.T.);
#524=ORIENTED_EDGE('',*,*,#815,.F.);
#525=ORIENTED_EDGE('',*,*,#797,.F.);
#526=ORIENTED_EDGE('',*,*,#802,.F.);
#527=ORIENTED_EDGE('',*,*,#835,.F.);
#528=ORIENTED_EDGE('',*,*,#836,.F.);
#529=ORIENTED_EDGE('',*,*,#837,.F.);
#530=ORIENTED_EDGE('',*,*,#838,.T.);
#531=ORIENTED_EDGE('',*,*,#839,.F.);
#532=ORIENTED_EDGE('',*,*,#840,.T.);
#533=ORIENTED_EDGE('',*,*,#841,.T.);
#534=ORIENTED_EDGE('',*,*,#842,.F.);
#535=ORIENTED_EDGE('',*,*,#843,.F.);
#536=ORIENTED_EDGE('',*,*,#841,.F.);
#537=ORIENTED_EDGE('',*,*,#844,.T.);
#538=ORIENTED_EDGE('',*,*,#845,.T.);
#539=ORIENTED_EDGE('',*,*,#846,.F.);
#540=ORIENTED_EDGE('',*,*,#845,.F.);
#541=ORIENTED_EDGE('',*,*,#847,.T.);
#542=ORIENTED_EDGE('',*,*,#848,.T.);
#543=ORIENTED_EDGE('',*,*,#849,.F.);
#544=ORIENTED_EDGE('',*,*,#848,.F.);
#545=ORIENTED_EDGE('',*,*,#850,.T.);
#546=ORIENTED_EDGE('',*,*,#851,.T.);
#547=ORIENTED_EDGE('',*,*,#852,.F.);
#548=ORIENTED_EDGE('',*,*,#851,.F.);
#549=ORIENTED_EDGE('',*,*,#853,.T.);
#550=ORIENTED_EDGE('',*,*,#854,.T.);
#551=ORIENTED_EDGE('',*,*,#855,.F.);
#552=ORIENTED_EDGE('',*,*,#854,.F.);
#553=ORIENTED_EDGE('',*,*,#856,.T.);
#554=ORIENTED_EDGE('',*,*,#857,.T.);
#555=ORIENTED_EDGE('',*,*,#858,.F.);
#556=ORIENTED_EDGE('',*,*,#857,.F.);
#557=ORIENTED_EDGE('',*,*,#859,.T.);
#558=ORIENTED_EDGE('',*,*,#860,.T.);
#559=ORIENTED_EDGE('',*,*,#861,.F.);
#560=ORIENTED_EDGE('',*,*,#860,.F.);
#561=ORIENTED_EDGE('',*,*,#862,.T.);
#562=ORIENTED_EDGE('',*,*,#863,.T.);
#563=ORIENTED_EDGE('',*,*,#864,.F.);
#564=ORIENTED_EDGE('',*,*,#863,.F.);
#565=ORIENTED_EDGE('',*,*,#865,.T.);
#566=ORIENTED_EDGE('',*,*,#866,.T.);
#567=ORIENTED_EDGE('',*,*,#867,.F.);
#568=ORIENTED_EDGE('',*,*,#866,.F.);
#569=ORIENTED_EDGE('',*,*,#868,.T.);
#570=ORIENTED_EDGE('',*,*,#837,.T.);
#571=ORIENTED_EDGE('',*,*,#840,.F.);
#572=ORIENTED_EDGE('',*,*,#869,.T.);
#573=ORIENTED_EDGE('',*,*,#870,.T.);
#574=ORIENTED_EDGE('',*,*,#838,.F.);
#575=ORIENTED_EDGE('',*,*,#868,.F.);
#576=ORIENTED_EDGE('',*,*,#865,.F.);
#577=ORIENTED_EDGE('',*,*,#862,.F.);
#578=ORIENTED_EDGE('',*,*,#859,.F.);
#579=ORIENTED_EDGE('',*,*,#856,.F.);
#580=ORIENTED_EDGE('',*,*,#853,.F.);
#581=ORIENTED_EDGE('',*,*,#850,.F.);
#582=ORIENTED_EDGE('',*,*,#847,.F.);
#583=ORIENTED_EDGE('',*,*,#844,.F.);
#584=ORIENTED_EDGE('',*,*,#871,.F.);
#585=ORIENTED_EDGE('',*,*,#842,.T.);
#586=ORIENTED_EDGE('',*,*,#843,.T.);
#587=ORIENTED_EDGE('',*,*,#846,.T.);
#588=ORIENTED_EDGE('',*,*,#849,.T.);
#589=ORIENTED_EDGE('',*,*,#852,.T.);
#590=ORIENTED_EDGE('',*,*,#855,.T.);
#591=ORIENTED_EDGE('',*,*,#858,.T.);
#592=ORIENTED_EDGE('',*,*,#861,.T.);
#593=ORIENTED_EDGE('',*,*,#864,.T.);
#594=ORIENTED_EDGE('',*,*,#867,.T.);
#595=ORIENTED_EDGE('',*,*,#836,.T.);
#596=ORIENTED_EDGE('',*,*,#872,.F.);
#597=ORIENTED_EDGE('',*,*,#839,.T.);
#598=ORIENTED_EDGE('',*,*,#871,.T.);
#599=ORIENTED_EDGE('',*,*,#873,.T.);
#600=ORIENTED_EDGE('',*,*,#869,.F.);
#601=ORIENTED_EDGE('',*,*,#873,.F.);
#602=ORIENTED_EDGE('',*,*,#872,.T.);
#603=ORIENTED_EDGE('',*,*,#835,.T.);
#604=ORIENTED_EDGE('',*,*,#870,.F.);
#605=ORIENTED_EDGE('',*,*,#874,.F.);
#606=ORIENTED_EDGE('',*,*,#875,.F.);
#607=ORIENTED_EDGE('',*,*,#876,.F.);
#608=ORIENTED_EDGE('',*,*,#877,.T.);
#609=ORIENTED_EDGE('',*,*,#878,.F.);
#610=ORIENTED_EDGE('',*,*,#879,.T.);
#611=ORIENTED_EDGE('',*,*,#880,.T.);
#612=ORIENTED_EDGE('',*,*,#881,.F.);
#613=ORIENTED_EDGE('',*,*,#882,.F.);
#614=ORIENTED_EDGE('',*,*,#880,.F.);
#615=ORIENTED_EDGE('',*,*,#883,.T.);
#616=ORIENTED_EDGE('',*,*,#884,.T.);
#617=ORIENTED_EDGE('',*,*,#885,.F.);
#618=ORIENTED_EDGE('',*,*,#884,.F.);
#619=ORIENTED_EDGE('',*,*,#886,.T.);
#620=ORIENTED_EDGE('',*,*,#887,.T.);
#621=ORIENTED_EDGE('',*,*,#888,.F.);
#622=ORIENTED_EDGE('',*,*,#887,.F.);
#623=ORIENTED_EDGE('',*,*,#889,.T.);
#624=ORIENTED_EDGE('',*,*,#890,.T.);
#625=ORIENTED_EDGE('',*,*,#891,.F.);
#626=ORIENTED_EDGE('',*,*,#890,.F.);
#627=ORIENTED_EDGE('',*,*,#892,.T.);
#628=ORIENTED_EDGE('',*,*,#893,.T.);
#629=ORIENTED_EDGE('',*,*,#894,.F.);
#630=ORIENTED_EDGE('',*,*,#893,.F.);
#631=ORIENTED_EDGE('',*,*,#895,.T.);
#632=ORIENTED_EDGE('',*,*,#896,.T.);
#633=ORIENTED_EDGE('',*,*,#897,.F.);
#634=ORIENTED_EDGE('',*,*,#896,.F.);
#635=ORIENTED_EDGE('',*,*,#898,.T.);
#636=ORIENTED_EDGE('',*,*,#899,.T.);
#637=ORIENTED_EDGE('',*,*,#900,.F.);
#638=ORIENTED_EDGE('',*,*,#899,.F.);
#639=ORIENTED_EDGE('',*,*,#901,.T.);
#640=ORIENTED_EDGE('',*,*,#902,.T.);
#641=ORIENTED_EDGE('',*,*,#903,.F.);
#642=ORIENTED_EDGE('',*,*,#902,.F.);
#643=ORIENTED_EDGE('',*,*,#904,.T.);
#644=ORIENTED_EDGE('',*,*,#905,.T.);
#645=ORIENTED_EDGE('',*,*,#906,.F.);
#646=ORIENTED_EDGE('',*,*,#905,.F.);
#647=ORIENTED_EDGE('',*,*,#907,.T.);
#648=ORIENTED_EDGE('',*,*,#876,.T.);
#649=ORIENTED_EDGE('',*,*,#908,.T.);
#650=ORIENTED_EDGE('',*,*,#909,.T.);
#651=ORIENTED_EDGE('',*,*,#877,.F.);
#652=ORIENTED_EDGE('',*,*,#907,.F.);
#653=ORIENTED_EDGE('',*,*,#904,.F.);
#654=ORIENTED_EDGE('',*,*,#901,.F.);
#655=ORIENTED_EDGE('',*,*,#898,.F.);
#656=ORIENTED_EDGE('',*,*,#895,.F.);
#657=ORIENTED_EDGE('',*,*,#892,.F.);
#658=ORIENTED_EDGE('',*,*,#889,.F.);
#659=ORIENTED_EDGE('',*,*,#886,.F.);
#660=ORIENTED_EDGE('',*,*,#883,.F.);
#661=ORIENTED_EDGE('',*,*,#879,.F.);
#662=ORIENTED_EDGE('',*,*,#910,.F.);
#663=ORIENTED_EDGE('',*,*,#911,.F.);
#664=ORIENTED_EDGE('',*,*,#881,.T.);
#665=ORIENTED_EDGE('',*,*,#882,.T.);
#666=ORIENTED_EDGE('',*,*,#885,.T.);
#667=ORIENTED_EDGE('',*,*,#888,.T.);
#668=ORIENTED_EDGE('',*,*,#891,.T.);
#669=ORIENTED_EDGE('',*,*,#894,.T.);
#670=ORIENTED_EDGE('',*,*,#897,.T.);
#671=ORIENTED_EDGE('',*,*,#900,.T.);
#672=ORIENTED_EDGE('',*,*,#903,.T.);
#673=ORIENTED_EDGE('',*,*,#906,.T.);
#674=ORIENTED_EDGE('',*,*,#875,.T.);
#675=ORIENTED_EDGE('',*,*,#912,.T.);
#676=ORIENTED_EDGE('',*,*,#910,.T.);
#677=ORIENTED_EDGE('',*,*,#874,.T.);
#678=ORIENTED_EDGE('',*,*,#909,.F.);
#679=ORIENTED_EDGE('',*,*,#878,.T.);
#680=ORIENTED_EDGE('',*,*,#911,.T.);
#681=ORIENTED_EDGE('',*,*,#912,.F.);
#682=ORIENTED_EDGE('',*,*,#908,.F.);
#683=VERTEX_POINT('',#1524);
#684=VERTEX_POINT('',#1525);
#685=VERTEX_POINT('',#1527);
#686=VERTEX_POINT('',#1529);
#687=VERTEX_POINT('',#1533);
#688=VERTEX_POINT('',#1534);
#689=VERTEX_POINT('',#1536);
#690=VERTEX_POINT('',#1538);
#691=VERTEX_POINT('',#1542);
#692=VERTEX_POINT('',#1543);
#693=VERTEX_POINT('',#1548);
#694=VERTEX_POINT('',#1549);
#695=VERTEX_POINT('',#1552);
#696=VERTEX_POINT('',#1554);
#697=VERTEX_POINT('',#1558);
#698=VERTEX_POINT('',#1560);
#699=VERTEX_POINT('',#1564);
#700=VERTEX_POINT('',#1566);
#701=VERTEX_POINT('',#1570);
#702=VERTEX_POINT('',#1572);
#703=VERTEX_POINT('',#1576);
#704=VERTEX_POINT('',#1577);
#705=VERTEX_POINT('',#1579);
#706=VERTEX_POINT('',#1582);
#707=VERTEX_POINT('',#1586);
#708=VERTEX_POINT('',#1587);
#709=VERTEX_POINT('',#1592);
#710=VERTEX_POINT('',#1593);
#711=VERTEX_POINT('',#1598);
#712=VERTEX_POINT('',#1599);
#713=VERTEX_POINT('',#1601);
#714=VERTEX_POINT('',#1603);
#715=VERTEX_POINT('',#1607);
#716=VERTEX_POINT('',#1608);
#717=VERTEX_POINT('',#1610);
#718=VERTEX_POINT('',#1612);
#719=VERTEX_POINT('',#1655);
#720=VERTEX_POINT('',#1656);
#721=VERTEX_POINT('',#1658);
#722=VERTEX_POINT('',#1660);
#723=VERTEX_POINT('',#1664);
#724=VERTEX_POINT('',#1665);
#725=VERTEX_POINT('',#1667);
#726=VERTEX_POINT('',#1669);
#727=VERTEX_POINT('',#1673);
#728=VERTEX_POINT('',#1675);
#729=VERTEX_POINT('',#1679);
#730=VERTEX_POINT('',#1681);
#731=VERTEX_POINT('',#1685);
#732=VERTEX_POINT('',#1687);
#733=VERTEX_POINT('',#1691);
#734=VERTEX_POINT('',#1693);
#735=VERTEX_POINT('',#1697);
#736=VERTEX_POINT('',#1699);
#737=VERTEX_POINT('',#1703);
#738=VERTEX_POINT('',#1705);
#739=VERTEX_POINT('',#1709);
#740=VERTEX_POINT('',#1711);
#741=VERTEX_POINT('',#1715);
#742=VERTEX_POINT('',#1717);
#743=VERTEX_POINT('',#1724);
#744=VERTEX_POINT('',#1728);
#745=VERTEX_POINT('',#1736);
#746=VERTEX_POINT('',#1737);
#747=VERTEX_POINT('',#1739);
#748=VERTEX_POINT('',#1741);
#749=VERTEX_POINT('',#1745);
#750=VERTEX_POINT('',#1746);
#751=VERTEX_POINT('',#1748);
#752=VERTEX_POINT('',#1750);
#753=VERTEX_POINT('',#1754);
#754=VERTEX_POINT('',#1756);
#755=VERTEX_POINT('',#1760);
#756=VERTEX_POINT('',#1762);
#757=VERTEX_POINT('',#1766);
#758=VERTEX_POINT('',#1768);
#759=VERTEX_POINT('',#1772);
#760=VERTEX_POINT('',#1774);
#761=VERTEX_POINT('',#1778);
#762=VERTEX_POINT('',#1780);
#763=VERTEX_POINT('',#1784);
#764=VERTEX_POINT('',#1786);
#765=VERTEX_POINT('',#1790);
#766=VERTEX_POINT('',#1792);
#767=VERTEX_POINT('',#1796);
#768=VERTEX_POINT('',#1798);
#769=VERTEX_POINT('',#1805);
#770=VERTEX_POINT('',#1809);
#771=EDGE_CURVE('',#683,#684,#913,.T.);
#772=EDGE_CURVE('',#684,#685,#914,.T.);
#773=EDGE_CURVE('',#685,#686,#915,.T.);
#774=EDGE_CURVE('',#686,#683,#916,.T.);
#775=EDGE_CURVE('',#687,#688,#917,.T.);
#776=EDGE_CURVE('',#688,#689,#918,.T.);
#777=EDGE_CURVE('',#689,#690,#919,.T.);
#778=EDGE_CURVE('',#690,#687,#920,.T.);
#779=EDGE_CURVE('',#691,#692,#921,.T.);
#780=EDGE_CURVE('',#692,#688,#922,.T.);
#781=EDGE_CURVE('',#687,#691,#923,.T.);
#782=EDGE_CURVE('',#693,#694,#924,.T.);
#783=EDGE_CURVE('',#694,#692,#175,.T.);
#784=EDGE_CURVE('',#691,#695,#176,.T.);
#785=EDGE_CURVE('',#695,#696,#925,.T.);
#786=EDGE_CURVE('',#696,#693,#926,.T.);
#787=EDGE_CURVE('',#696,#697,#927,.T.);
#788=EDGE_CURVE('',#697,#698,#928,.T.);
#789=EDGE_CURVE('',#698,#693,#929,.T.);
#790=EDGE_CURVE('',#697,#699,#930,.T.);
#791=EDGE_CURVE('',#699,#700,#931,.T.);
#792=EDGE_CURVE('',#700,#698,#932,.T.);
#793=EDGE_CURVE('',#699,#701,#933,.T.);
#794=EDGE_CURVE('',#701,#702,#934,.T.);
#795=EDGE_CURVE('',#702,#700,#935,.T.);
#796=EDGE_CURVE('',#703,#704,#936,.T.);
#797=EDGE_CURVE('',#704,#705,#177,.T.);
#798=EDGE_CURVE('',#705,#702,#937,.T.);
#799=EDGE_CURVE('',#701,#706,#938,.T.);
#800=EDGE_CURVE('',#706,#703,#178,.T.);
#801=EDGE_CURVE('',#707,#708,#939,.T.);
#802=EDGE_CURVE('',#708,#704,#940,.T.);
#803=EDGE_CURVE('',#703,#707,#941,.T.);
#804=EDGE_CURVE('',#709,#710,#942,.T.);
#805=EDGE_CURVE('',#710,#708,#943,.T.);
#806=EDGE_CURVE('',#707,#709,#944,.T.);
#807=EDGE_CURVE('',#711,#712,#945,.T.);
#808=EDGE_CURVE('',#712,#713,#946,.T.);
#809=EDGE_CURVE('',#714,#713,#947,.T.);
#810=EDGE_CURVE('',#714,#711,#948,.T.);
#811=EDGE_CURVE('',#715,#716,#949,.T.);
#812=EDGE_CURVE('',#715,#717,#950,.T.);
#813=EDGE_CURVE('',#717,#718,#951,.T.);
#814=EDGE_CURVE('',#718,#716,#952,.T.);
#815=EDGE_CURVE('',#705,#715,#953,.T.);
#816=EDGE_CURVE('',#716,#694,#954,.T.);
#817=EDGE_CURVE('',#713,#706,#955,.T.);
#818=EDGE_CURVE('',#695,#714,#956,.T.);
#819=EDGE_CURVE('',#714,#687,#179,.T.);
#820=EDGE_CURVE('',#711,#690,#127,.T.);
#821=EDGE_CURVE('',#688,#716,#180,.T.);
#822=EDGE_CURVE('',#711,#683,#128,.T.);
#823=EDGE_CURVE('',#683,#690,#129,.T.);
#824=EDGE_CURVE('',#707,#713,#181,.T.);
#825=EDGE_CURVE('',#689,#718,#130,.T.);
#826=EDGE_CURVE('',#684,#689,#131,.T.);
#827=EDGE_CURVE('',#712,#686,#132,.T.);
#828=EDGE_CURVE('',#709,#712,#133,.T.);
#829=EDGE_CURVE('',#684,#718,#134,.T.);
#830=EDGE_CURVE('',#709,#686,#135,.T.);
#831=EDGE_CURVE('',#685,#717,#136,.T.);
#832=EDGE_CURVE('',#710,#685,#137,.T.);
#833=EDGE_CURVE('',#710,#717,#138,.T.);
#834=EDGE_CURVE('',#708,#715,#182,.T.);
#835=EDGE_CURVE('',#719,#720,#957,.T.);
#836=EDGE_CURVE('',#721,#719,#958,.T.);
#837=EDGE_CURVE('',#722,#721,#959,.T.);
#838=EDGE_CURVE('',#722,#720,#960,.T.);
#839=EDGE_CURVE('',#723,#724,#961,.T.);
#840=EDGE_CURVE('',#723,#725,#962,.T.);
#841=EDGE_CURVE('',#725,#726,#963,.T.);
#842=EDGE_CURVE('',#724,#726,#964,.T.);
#843=EDGE_CURVE('',#726,#727,#139,.T.);
#844=EDGE_CURVE('',#725,#728,#140,.T.);
#845=EDGE_CURVE('',#728,#727,#965,.T.);
#846=EDGE_CURVE('',#727,#729,#966,.T.);
#847=EDGE_CURVE('',#728,#730,#967,.T.);
#848=EDGE_CURVE('',#730,#729,#968,.T.);
#849=EDGE_CURVE('',#729,#731,#141,.T.);
#850=EDGE_CURVE('',#730,#732,#142,.T.);
#851=EDGE_CURVE('',#732,#731,#969,.T.);
#852=EDGE_CURVE('',#731,#733,#970,.T.);
#853=EDGE_CURVE('',#732,#734,#971,.T.);
#854=EDGE_CURVE('',#734,#733,#972,.T.);
#855=EDGE_CURVE('',#733,#735,#973,.T.);
#856=EDGE_CURVE('',#734,#736,#974,.T.);
#857=EDGE_CURVE('',#736,#735,#975,.T.);
#858=EDGE_CURVE('',#735,#737,#976,.T.);
#859=EDGE_CURVE('',#736,#738,#977,.T.);
#860=EDGE_CURVE('',#738,#737,#978,.T.);
#861=EDGE_CURVE('',#737,#739,#143,.T.);
#862=EDGE_CURVE('',#738,#740,#144,.T.);
#863=EDGE_CURVE('',#740,#739,#979,.T.);
#864=EDGE_CURVE('',#739,#741,#980,.T.);
#865=EDGE_CURVE('',#740,#742,#981,.T.);
#866=EDGE_CURVE('',#742,#741,#982,.T.);
#867=EDGE_CURVE('',#741,#721,#145,.T.);
#868=EDGE_CURVE('',#742,#722,#146,.T.);
#869=EDGE_CURVE('',#723,#743,#983,.T.);
#870=EDGE_CURVE('',#743,#720,#984,.T.);
#871=EDGE_CURVE('',#724,#744,#985,.T.);
#872=EDGE_CURVE('',#744,#719,#986,.T.);
#873=EDGE_CURVE('',#744,#743,#987,.T.);
#874=EDGE_CURVE('',#745,#746,#988,.T.);
#875=EDGE_CURVE('',#747,#745,#989,.T.);
#876=EDGE_CURVE('',#748,#747,#990,.T.);
#877=EDGE_CURVE('',#748,#746,#991,.T.);
#878=EDGE_CURVE('',#749,#750,#992,.T.);
#879=EDGE_CURVE('',#749,#751,#993,.T.);
#880=EDGE_CURVE('',#751,#752,#994,.T.);
#881=EDGE_CURVE('',#750,#752,#995,.T.);
#882=EDGE_CURVE('',#752,#753,#147,.T.);
#883=EDGE_CURVE('',#751,#754,#148,.T.);
#884=EDGE_CURVE('',#754,#753,#996,.T.);
#885=EDGE_CURVE('',#753,#755,#997,.T.);
#886=EDGE_CURVE('',#754,#756,#998,.T.);
#887=EDGE_CURVE('',#756,#755,#999,.T.);
#888=EDGE_CURVE('',#755,#757,#149,.T.);
#889=EDGE_CURVE('',#756,#758,#150,.T.);
#890=EDGE_CURVE('',#758,#757,#1000,.T.);
#891=EDGE_CURVE('',#757,#759,#1001,.T.);
#892=EDGE_CURVE('',#758,#760,#1002,.T.);
#893=EDGE_CURVE('',#760,#759,#1003,.T.);
#894=EDGE_CURVE('',#759,#761,#1004,.T.);
#895=EDGE_CURVE('',#760,#762,#1005,.T.);
#896=EDGE_CURVE('',#762,#761,#1006,.T.);
#897=EDGE_CURVE('',#761,#763,#1007,.T.);
#898=EDGE_CURVE('',#762,#764,#1008,.T.);
#899=EDGE_CURVE('',#764,#763,#1009,.T.);
#900=EDGE_CURVE('',#763,#765,#151,.T.);
#901=EDGE_CURVE('',#764,#766,#152,.T.);
#902=EDGE_CURVE('',#766,#765,#1010,.T.);
#903=EDGE_CURVE('',#765,#767,#1011,.T.);
#904=EDGE_CURVE('',#766,#768,#1012,.T.);
#905=EDGE_CURVE('',#768,#767,#1013,.T.);
#906=EDGE_CURVE('',#767,#747,#153,.T.);
#907=EDGE_CURVE('',#768,#748,#154,.T.);
#908=EDGE_CURVE('',#749,#769,#1014,.T.);
#909=EDGE_CURVE('',#769,#746,#1015,.T.);
#910=EDGE_CURVE('',#770,#745,#1016,.T.);
#911=EDGE_CURVE('',#750,#770,#1017,.T.);
#912=EDGE_CURVE('',#769,#770,#1018,.T.);
#913=LINE('',#1523,#1019);
#914=LINE('',#1526,#1020);
#915=LINE('',#1528,#1021);
#916=LINE('',#1530,#1022);
#917=LINE('',#1532,#1023);
#918=LINE('',#1535,#1024);
#919=LINE('',#1537,#1025);
#920=LINE('',#1539,#1026);
#921=LINE('',#1541,#1027);
#922=LINE('',#1544,#1028);
#923=LINE('',#1545,#1029);
#924=LINE('',#1547,#1030);
#925=LINE('',#1553,#1031);
#926=LINE('',#1555,#1032);
#927=LINE('',#1557,#1033);
#928=LINE('',#1559,#1034);
#929=LINE('',#1561,#1035);
#930=LINE('',#1563,#1036);
#931=LINE('',#1565,#1037);
#932=LINE('',#1567,#1038);
#933=LINE('',#1569,#1039);
#934=LINE('',#1571,#1040);
#935=LINE('',#1573,#1041);
#936=LINE('',#1575,#1042);
#937=LINE('',#1580,#1043);
#938=LINE('',#1581,#1044);
#939=LINE('',#1585,#1045);
#940=LINE('',#1588,#1046);
#941=LINE('',#1589,#1047);
#942=LINE('',#1591,#1048);
#943=LINE('',#1594,#1049);
#944=LINE('',#1595,#1050);
#945=LINE('',#1597,#1051);
#946=LINE('',#1600,#1052);
#947=LINE('',#1602,#1053);
#948=LINE('',#1604,#1054);
#949=LINE('',#1606,#1055);
#950=LINE('',#1609,#1056);
#951=LINE('',#1611,#1057);
#952=LINE('',#1613,#1058);
#953=LINE('',#1615,#1059);
#954=LINE('',#1616,#1060);
#955=LINE('',#1618,#1061);
#956=LINE('',#1619,#1062);
#957=LINE('',#1654,#1063);
#958=LINE('',#1657,#1064);
#959=LINE('',#1659,#1065);
#960=LINE('',#1661,#1066);
#961=LINE('',#1663,#1067);
#962=LINE('',#1666,#1068);
#963=LINE('',#1668,#1069);
#964=LINE('',#1670,#1070);
#965=LINE('',#1676,#1071);
#966=LINE('',#1678,#1072);
#967=LINE('',#1680,#1073);
#968=LINE('',#1682,#1074);
#969=LINE('',#1688,#1075);
#970=LINE('',#1690,#1076);
#971=LINE('',#1692,#1077);
#972=LINE('',#1694,#1078);
#973=LINE('',#1696,#1079);
#974=LINE('',#1698,#1080);
#975=LINE('',#1700,#1081);
#976=LINE('',#1702,#1082);
#977=LINE('',#1704,#1083);
#978=LINE('',#1706,#1084);
#979=LINE('',#1712,#1085);
#980=LINE('',#1714,#1086);
#981=LINE('',#1716,#1087);
#982=LINE('',#1718,#1088);
#983=LINE('',#1723,#1089);
#984=LINE('',#1725,#1090);
#985=LINE('',#1727,#1091);
#986=LINE('',#1729,#1092);
#987=LINE('',#1731,#1093);
#988=LINE('',#1735,#1094);
#989=LINE('',#1738,#1095);
#990=LINE('',#1740,#1096);
#991=LINE('',#1742,#1097);
#992=LINE('',#1744,#1098);
#993=LINE('',#1747,#1099);
#994=LINE('',#1749,#1100);
#995=LINE('',#1751,#1101);
#996=LINE('',#1757,#1102);
#997=LINE('',#1759,#1103);
#998=LINE('',#1761,#1104);
#999=LINE('',#1763,#1105);
#1000=LINE('',#1769,#1106);
#1001=LINE('',#1771,#1107);
#1002=LINE('',#1773,#1108);
#1003=LINE('',#1775,#1109);
#1004=LINE('',#1777,#1110);
#1005=LINE('',#1779,#1111);
#1006=LINE('',#1781,#1112);
#1007=LINE('',#1783,#1113);
#1008=LINE('',#1785,#1114);
#1009=LINE('',#1787,#1115);
#1010=LINE('',#1793,#1116);
#1011=LINE('',#1795,#1117);
#1012=LINE('',#1797,#1118);
#1013=LINE('',#1799,#1119);
#1014=LINE('',#1804,#1120);
#1015=LINE('',#1806,#1121);
#1016=LINE('',#1808,#1122);
#1017=LINE('',#1810,#1123);
#1018=LINE('',#1812,#1124);
#1019=VECTOR('',#1224,1.);
#1020=VECTOR('',#1225,1.);
#1021=VECTOR('',#1226,1.);
#1022=VECTOR('',#1227,1.);
#1023=VECTOR('',#1230,1.);
#1024=VECTOR('',#1231,1.);
#1025=VECTOR('',#1232,1.);
#1026=VECTOR('',#1233,1.);
#1027=VECTOR('',#1236,1.);
#1028=VECTOR('',#1237,1.);
#1029=VECTOR('',#1238,1.);
#1030=VECTOR('',#1241,1.);
#1031=VECTOR('',#1246,1.);
#1032=VECTOR('',#1247,1.);
#1033=VECTOR('',#1250,1.);
#1034=VECTOR('',#1251,1.);
#1035=VECTOR('',#1252,1.);
#1036=VECTOR('',#1255,1.);
#1037=VECTOR('',#1256,1.);
#1038=VECTOR('',#1257,1.);
#1039=VECTOR('',#1260,1.);
#1040=VECTOR('',#1261,1.);
#1041=VECTOR('',#1262,1.);
#1042=VECTOR('',#1265,1.);
#1043=VECTOR('',#1268,1.);
#1044=VECTOR('',#1269,1.);
#1045=VECTOR('',#1274,1.);
#1046=VECTOR('',#1275,1.);
#1047=VECTOR('',#1276,1.);
#1048=VECTOR('',#1279,1.);
#1049=VECTOR('',#1280,1.);
#1050=VECTOR('',#1281,1.);
#1051=VECTOR('',#1284,1.);
#1052=VECTOR('',#1285,1.);
#1053=VECTOR('',#1286,1.);
#1054=VECTOR('',#1287,1.);
#1055=VECTOR('',#1290,1.);
#1056=VECTOR('',#1291,1.);
#1057=VECTOR('',#1292,1.);
#1058=VECTOR('',#1293,1.);
#1059=VECTOR('',#1296,1.);
#1060=VECTOR('',#1297,1.);
#1061=VECTOR('',#1300,1.);
#1062=VECTOR('',#1301,1.);
#1063=VECTOR('',#1368,1.);
#1064=VECTOR('',#1369,1.);
#1065=VECTOR('',#1370,1.);
#1066=VECTOR('',#1371,1.);
#1067=VECTOR('',#1374,1.);
#1068=VECTOR('',#1375,1.);
#1069=VECTOR('',#1376,1.);
#1070=VECTOR('',#1377,1.);
#1071=VECTOR('',#1384,1.);
#1072=VECTOR('',#1387,1.);
#1073=VECTOR('',#1388,1.);
#1074=VECTOR('',#1389,1.);
#1075=VECTOR('',#1396,1.);
#1076=VECTOR('',#1399,1.);
#1077=VECTOR('',#1400,1.);
#1078=VECTOR('',#1401,1.);
#1079=VECTOR('',#1404,1.);
#1080=VECTOR('',#1405,1.);
#1081=VECTOR('',#1406,1.);
#1082=VECTOR('',#1409,1.);
#1083=VECTOR('',#1410,1.);
#1084=VECTOR('',#1411,1.);
#1085=VECTOR('',#1418,1.);
#1086=VECTOR('',#1421,1.);
#1087=VECTOR('',#1422,1.);
#1088=VECTOR('',#1423,1.);
#1089=VECTOR('',#1432,1.);
#1090=VECTOR('',#1433,1.);
#1091=VECTOR('',#1436,1.);
#1092=VECTOR('',#1437,1.);
#1093=VECTOR('',#1440,1.);
#1094=VECTOR('',#1445,1.);
#1095=VECTOR('',#1446,1.);
#1096=VECTOR('',#1447,1.);
#1097=VECTOR('',#1448,1.);
#1098=VECTOR('',#1451,1.);
#1099=VECTOR('',#1452,1.);
#1100=VECTOR('',#1453,1.);
#1101=VECTOR('',#1454,1.);
#1102=VECTOR('',#1461,1.);
#1103=VECTOR('',#1464,1.);
#1104=VECTOR('',#1465,1.);
#1105=VECTOR('',#1466,1.);
#1106=VECTOR('',#1473,1.);
#1107=VECTOR('',#1476,1.);
#1108=VECTOR('',#1477,1.);
#1109=VECTOR('',#1478,1.);
#1110=VECTOR('',#1481,1.);
#1111=VECTOR('',#1482,1.);
#1112=VECTOR('',#1483,1.);
#1113=VECTOR('',#1486,1.);
#1114=VECTOR('',#1487,1.);
#1115=VECTOR('',#1488,1.);
#1116=VECTOR('',#1495,1.);
#1117=VECTOR('',#1498,1.);
#1118=VECTOR('',#1499,1.);
#1119=VECTOR('',#1500,1.);
#1120=VECTOR('',#1509,1.);
#1121=VECTOR('',#1510,1.);
#1122=VECTOR('',#1513,1.);
#1123=VECTOR('',#1514,1.);
#1124=VECTOR('',#1517,1.);
#1125=AXIS2_PLACEMENT_3D('',#1522,#1222,#1223);
#1126=AXIS2_PLACEMENT_3D('',#1531,#1228,#1229);
#1127=AXIS2_PLACEMENT_3D('',#1540,#1234,#1235);
#1128=AXIS2_PLACEMENT_3D('',#1546,#1239,#1240);
#1129=AXIS2_PLACEMENT_3D('',#1550,#1242,#1243);
#1130=AXIS2_PLACEMENT_3D('',#1551,#1244,#1245);
#1131=AXIS2_PLACEMENT_3D('',#1556,#1248,#1249);
#1132=AXIS2_PLACEMENT_3D('',#1562,#1253,#1254);
#1133=AXIS2_PLACEMENT_3D('',#1568,#1258,#1259);
#1134=AXIS2_PLACEMENT_3D('',#1574,#1263,#1264);
#1135=AXIS2_PLACEMENT_3D('',#1578,#1266,#1267);
#1136=AXIS2_PLACEMENT_3D('',#1583,#1270,#1271);
#1137=AXIS2_PLACEMENT_3D('',#1584,#1272,#1273);
#1138=AXIS2_PLACEMENT_3D('',#1590,#1277,#1278);
#1139=AXIS2_PLACEMENT_3D('',#1596,#1282,#1283);
#1140=AXIS2_PLACEMENT_3D('',#1605,#1288,#1289);
#1141=AXIS2_PLACEMENT_3D('',#1614,#1294,#1295);
#1142=AXIS2_PLACEMENT_3D('',#1617,#1298,#1299);
#1143=AXIS2_PLACEMENT_3D('',#1620,#1302,#1303);
#1144=AXIS2_PLACEMENT_3D('',#1621,#1304,#1305);
#1145=AXIS2_PLACEMENT_3D('',#1622,#1306,#1307);
#1146=AXIS2_PLACEMENT_3D('',#1623,#1308,#1309);
#1147=AXIS2_PLACEMENT_3D('',#1624,#1310,#1311);
#1148=AXIS2_PLACEMENT_3D('',#1625,#1312,#1313);
#1149=AXIS2_PLACEMENT_3D('',#1626,#1314,#1315);
#1150=AXIS2_PLACEMENT_3D('',#1627,#1316,#1317);
#1151=AXIS2_PLACEMENT_3D('',#1628,#1318,#1319);
#1152=AXIS2_PLACEMENT_3D('',#1629,#1320,#1321);
#1153=AXIS2_PLACEMENT_3D('',#1630,#1322,#1323);
#1154=AXIS2_PLACEMENT_3D('',#1631,#1324,#1325);
#1155=AXIS2_PLACEMENT_3D('',#1632,#1326,#1327);
#1156=AXIS2_PLACEMENT_3D('',#1633,#1328,#1329);
#1157=AXIS2_PLACEMENT_3D('',#1634,#1330,#1331);
#1158=AXIS2_PLACEMENT_3D('',#1635,#1332,#1333);
#1159=AXIS2_PLACEMENT_3D('',#1636,#1334,#1335);
#1160=AXIS2_PLACEMENT_3D('',#1637,#1336,#1337);
#1161=AXIS2_PLACEMENT_3D('',#1638,#1338,#1339);
#1162=AXIS2_PLACEMENT_3D('',#1639,#1340,#1341);
#1163=AXIS2_PLACEMENT_3D('',#1640,#1342,#1343);
#1164=AXIS2_PLACEMENT_3D('',#1641,#1344,#1345);
#1165=AXIS2_PLACEMENT_3D('',#1642,#1346,#1347);
#1166=AXIS2_PLACEMENT_3D('',#1643,#1348,#1349);
#1167=AXIS2_PLACEMENT_3D('',#1644,#1350,#1351);
#1168=AXIS2_PLACEMENT_3D('',#1645,#1352,#1353);
#1169=AXIS2_PLACEMENT_3D('',#1646,#1354,#1355);
#1170=AXIS2_PLACEMENT_3D('',#1647,#1356,#1357);
#1171=AXIS2_PLACEMENT_3D('',#1648,#1358,#1359);
#1172=AXIS2_PLACEMENT_3D('',#1649,#1360,#1361);
#1173=AXIS2_PLACEMENT_3D('',#1650,#1362,#1363);
#1174=AXIS2_PLACEMENT_3D('',#1651,#1364,#1365);
#1175=AXIS2_PLACEMENT_3D('',#1652,#1366,#1367);
#1176=AXIS2_PLACEMENT_3D('',#1662,#1372,#1373);
#1177=AXIS2_PLACEMENT_3D('',#1671,#1378,#1379);
#1178=AXIS2_PLACEMENT_3D('',#1672,#1380,#1381);
#1179=AXIS2_PLACEMENT_3D('',#1674,#1382,#1383);
#1180=AXIS2_PLACEMENT_3D('',#1677,#1385,#1386);
#1181=AXIS2_PLACEMENT_3D('',#1683,#1390,#1391);
#1182=AXIS2_PLACEMENT_3D('',#1684,#1392,#1393);
#1183=AXIS2_PLACEMENT_3D('',#1686,#1394,#1395);
#1184=AXIS2_PLACEMENT_3D('',#1689,#1397,#1398);
#1185=AXIS2_PLACEMENT_3D('',#1695,#1402,#1403);
#1186=AXIS2_PLACEMENT_3D('',#1701,#1407,#1408);
#1187=AXIS2_PLACEMENT_3D('',#1707,#1412,#1413);
#1188=AXIS2_PLACEMENT_3D('',#1708,#1414,#1415);
#1189=AXIS2_PLACEMENT_3D('',#1710,#1416,#1417);
#1190=AXIS2_PLACEMENT_3D('',#1713,#1419,#1420);
#1191=AXIS2_PLACEMENT_3D('',#1719,#1424,#1425);
#1192=AXIS2_PLACEMENT_3D('',#1720,#1426,#1427);
#1193=AXIS2_PLACEMENT_3D('',#1721,#1428,#1429);
#1194=AXIS2_PLACEMENT_3D('',#1722,#1430,#1431);
#1195=AXIS2_PLACEMENT_3D('',#1726,#1434,#1435);
#1196=AXIS2_PLACEMENT_3D('',#1730,#1438,#1439);
#1197=AXIS2_PLACEMENT_3D('',#1732,#1441,#1442);
#1198=AXIS2_PLACEMENT_3D('',#1733,#1443,#1444);
#1199=AXIS2_PLACEMENT_3D('',#1743,#1449,#1450);
#1200=AXIS2_PLACEMENT_3D('',#1752,#1455,#1456);
#1201=AXIS2_PLACEMENT_3D('',#1753,#1457,#1458);
#1202=AXIS2_PLACEMENT_3D('',#1755,#1459,#1460);
#1203=AXIS2_PLACEMENT_3D('',#1758,#1462,#1463);
#1204=AXIS2_PLACEMENT_3D('',#1764,#1467,#1468);
#1205=AXIS2_PLACEMENT_3D('',#1765,#1469,#1470);
#1206=AXIS2_PLACEMENT_3D('',#1767,#1471,#1472);
#1207=AXIS2_PLACEMENT_3D('',#1770,#1474,#1475);
#1208=AXIS2_PLACEMENT_3D('',#1776,#1479,#1480);
#1209=AXIS2_PLACEMENT_3D('',#1782,#1484,#1485);
#1210=AXIS2_PLACEMENT_3D('',#1788,#1489,#1490);
#1211=AXIS2_PLACEMENT_3D('',#1789,#1491,#1492);
#1212=AXIS2_PLACEMENT_3D('',#1791,#1493,#1494);
#1213=AXIS2_PLACEMENT_3D('',#1794,#1496,#1497);
#1214=AXIS2_PLACEMENT_3D('',#1800,#1501,#1502);
#1215=AXIS2_PLACEMENT_3D('',#1801,#1503,#1504);
#1216=AXIS2_PLACEMENT_3D('',#1802,#1505,#1506);
#1217=AXIS2_PLACEMENT_3D('',#1803,#1507,#1508);
#1218=AXIS2_PLACEMENT_3D('',#1807,#1511,#1512);
#1219=AXIS2_PLACEMENT_3D('',#1811,#1515,#1516);
#1220=AXIS2_PLACEMENT_3D('',#1813,#1518,#1519);
#1221=AXIS2_PLACEMENT_3D('',#1814,#1520,#1521);
#1222=DIRECTION('',(0.,0.,1.));
#1223=DIRECTION('',(1.,0.,0.));
#1224=DIRECTION('',(0.,1.,0.));
#1225=DIRECTION('',(-1.,0.,0.));
#1226=DIRECTION('',(0.,-1.,0.));
#1227=DIRECTION('',(1.,0.,0.));
#1228=DIRECTION('',(0.,0.,1.));
#1229=DIRECTION('',(0.,-1.,0.));
#1230=DIRECTION('',(0.,1.,0.));
#1231=DIRECTION('',(-0.0868265938642476,-0.0868265938642476,0.992432509138967));
#1232=DIRECTION('',(0.,-1.,0.));
#1233=DIRECTION('',(0.0868265938642476,-0.0868265938642476,-0.992432509138967));
#1234=DIRECTION('',(0.996194698091745,0.,0.0871557427476582));
#1235=DIRECTION('',(-0.0871557427476582,0.,0.996194698091746));
#1236=DIRECTION('',(0.,1.,0.));
#1237=DIRECTION('',(0.0868265938642472,0.0868265938642476,0.992432509138967));
#1238=DIRECTION('',(-0.0868265938642472,0.0868265938642476,-0.992432509138967));
#1239=DIRECTION('',(0.996194698091746,0.,-0.0871557427476578));
#1240=DIRECTION('',(0.0871557427476578,0.,0.996194698091746));
#1241=DIRECTION('',(1.,6.07216147898028E-018,6.94051232955573E-017));
#1242=DIRECTION('',(6.94051232955573E-017,1.23259516440783E-032,-1.));
#1243=DIRECTION('',(-0.707106781186546,-0.707106781186549,-4.90768333313769E-017));
#1244=DIRECTION('',(6.94051232955573E-017,-1.23259516440783E-032,-1.));
#1245=DIRECTION('',(-0.707106781186546,0.707106781186549,-4.90768333313769E-017));
#1246=DIRECTION('',(-1.,6.07216147898028E-018,-6.94051232955573E-017));
#1247=DIRECTION('',(0.,1.,0.));
#1248=DIRECTION('',(6.94051232955573E-017,0.,-1.));
#1249=DIRECTION('',(1.,0.,6.93889390390723E-017));
#1250=DIRECTION('',(-0.257899784197096,0.0842074097641777,-0.962495097884607));
#1251=DIRECTION('',(0.,1.,0.));
#1252=DIRECTION('',(0.257899784197096,0.0842074097641777,0.962495097884607));
#1253=DIRECTION('',(0.965925826289068,0.,-0.258819045102522));
#1254=DIRECTION('',(0.258819045102522,0.,0.965925826289068));
#1255=DIRECTION('',(-1.,0.,0.));
#1256=DIRECTION('',(0.,1.,0.));
#1257=DIRECTION('',(1.,0.,0.));
#1258=DIRECTION('',(0.,0.,-1.));
#1259=DIRECTION('',(0.,1.,0.));
#1260=DIRECTION('',(-0.257899784197096,-0.0842074097641777,0.962495097884607));
#1261=DIRECTION('',(0.,1.,0.));
#1262=DIRECTION('',(0.257899784197096,-0.0842074097641777,-0.962495097884607));
#1263=DIRECTION('',(-0.965925826289068,0.,-0.258819045102521));
#1264=DIRECTION('',(0.258819045102521,0.,-0.965925826289068));
#1265=DIRECTION('',(0.,1.,0.));
#1266=DIRECTION('',(0.,0.,-1.));
#1267=DIRECTION('',(-0.707106781186547,0.707106781186548,0.));
#1268=DIRECTION('',(1.,0.,0.));
#1269=DIRECTION('',(-1.,0.,0.));
#1270=DIRECTION('',(0.,0.,-1.));
#1271=DIRECTION('',(-0.707106781186547,-0.707106781186548,0.));
#1272=DIRECTION('',(0.,0.,-1.));
#1273=DIRECTION('',(0.,1.,0.));
#1274=DIRECTION('',(0.,1.,0.));
#1275=DIRECTION('',(0.0868265938642475,-0.0868265938642476,-0.992432509138967));
#1276=DIRECTION('',(-0.0868265938642475,-0.0868265938642476,0.992432509138967));
#1277=DIRECTION('',(-0.996194698091745,0.,-0.0871557427476581));
#1278=DIRECTION('',(0.0871557427476581,0.,-0.996194698091746));
#1279=DIRECTION('',(0.,1.,0.));
#1280=DIRECTION('',(-0.0868265938642476,0.0868265938642476,-0.992432509138967));
#1281=DIRECTION('',(0.0868265938642476,0.0868265938642476,0.992432509138967));
#1282=DIRECTION('',(-0.996194698091745,0.,0.0871557427476582));
#1283=DIRECTION('',(-0.0871557427476582,0.,-0.996194698091746));
#1284=DIRECTION('',(-1.,0.,0.));
#1285=DIRECTION('',(-0.0868265938642476,-0.0868265938642476,-0.992432509138967));
#1286=DIRECTION('',(-1.,0.,0.));
#1287=DIRECTION('',(-0.0868265938642476,0.0868265938642476,0.992432509138967));
#1288=DIRECTION('',(0.,-0.996194698091746,0.0871557427476582));
#1289=DIRECTION('',(-1.,0.,0.));
#1290=DIRECTION('',(1.,0.,0.));
#1291=DIRECTION('',(0.0868265938642476,-0.0868265938642476,0.992432509138967));
#1292=DIRECTION('',(1.,0.,0.));
#1293=DIRECTION('',(0.0868265938642476,0.0868265938642476,-0.992432509138967));
#1294=DIRECTION('',(0.,-0.996194698091746,-0.0871557427476582));
#1295=DIRECTION('',(1.,0.,0.));
#1296=DIRECTION('',(-0.0868265938642475,0.0868265938642476,0.992432509138967));
#1297=DIRECTION('',(-0.0868265938642472,-0.0868265938642476,-0.992432509138967));
#1298=DIRECTION('',(0.,-0.996194698091746,0.0871557427476582));
#1299=DIRECTION('',(-1.,0.,0.));
#1300=DIRECTION('',(0.0868265938642475,0.0868265938642476,-0.992432509138967));
#1301=DIRECTION('',(0.0868265938642472,-0.0868265938642476,0.992432509138967));
#1302=DIRECTION('',(0.,-0.996194698091746,-0.0871557427476582));
#1303=DIRECTION('',(1.,0.,0.));
#1304=DIRECTION('',(-7.40714675100886E-016,5.37952349844236E-016,1.));
#1305=DIRECTION('',(-0.707106781186547,0.707106781186548,-9.04154124218324E-016));
#1306=DIRECTION('',(-0.0868265938642472,0.0868265938642476,-0.992432509138967));
#1307=DIRECTION('',(0.,0.996194698091746,0.0871557427476572));
#1308=DIRECTION('',(-0.0868265938642457,0.0868265938642466,0.992432509138968));
#1309=DIRECTION('',(0.,-0.996194698091746,0.0871557427476572));
#1310=DIRECTION('',(0.0868265938642476,-0.0868265938642476,-0.992432509138967));
#1311=DIRECTION('',(0.,0.996194698091746,-0.0871557427476572));
#1312=DIRECTION('',(-7.40714675100886E-016,-5.37952349844236E-016,1.));
#1313=DIRECTION('',(-0.707106781186547,-0.707106781186548,-9.04154124218324E-016));
#1314=DIRECTION('',(-0.0868265938642472,-0.0868265938642476,-0.992432509138967));
#1315=DIRECTION('',(0.,0.996194698091746,-0.0871557427476572));
#1316=DIRECTION('',(-1.,0.,0.));
#1317=DIRECTION('',(0.,1.,0.));
#1318=DIRECTION('',(9.48553990626588E-016,1.,-1.0842021724855E-014));
#1319=DIRECTION('',(0.,-1.0842021724855E-014,-1.));
#1320=DIRECTION('',(0.,-1.,0.));
#1321=DIRECTION('',(1.,0.,0.));
#1322=DIRECTION('',(6.60308925430144E-016,6.18358099514976E-016,1.));
#1323=DIRECTION('',(0.707106781186547,0.707106781186548,-9.04154124218323E-016));
#1324=DIRECTION('',(-0.0868265938642475,-0.0868265938642476,0.992432509138967));
#1325=DIRECTION('',(0.,-0.996194698091746,-0.0871557427476586));
#1326=DIRECTION('',(-0.0868265938642466,-0.0868265938642468,0.992432509138967));
#1327=DIRECTION('',(0.,-0.996194698091746,-0.0871557427476572));
#1328=DIRECTION('',(0.0868265938642476,0.0868265938642476,-0.992432509138967));
#1329=DIRECTION('',(0.,0.996194698091746,0.0871557427476572));
#1330=DIRECTION('',(-6.80214780405339E-016,1.,0.));
#1331=DIRECTION('',(-1.,0.,0.));
#1332=DIRECTION('',(0.,1.,0.));
#1333=DIRECTION('',(-1.,0.,0.));
#1334=DIRECTION('',(-1.,2.96423122070808E-017,3.38813178901719E-016));
#1335=DIRECTION('',(0.,0.,-1.));
#1336=DIRECTION('',(1.,0.,0.));
#1337=DIRECTION('',(0.,1.,0.));
#1338=DIRECTION('',(0.0868265938642467,0.0868265938642456,0.992432509138967));
#1339=DIRECTION('',(-0.996194698091746,0.,0.0871557427476572));
#1340=DIRECTION('',(0.0868265938642476,0.0868265938642476,0.992432509138967));
#1341=DIRECTION('',(0.,-0.996194698091746,0.0871557427476572));
#1342=DIRECTION('',(-1.,0.,0.));
#1343=DIRECTION('',(0.,1.,0.));
#1344=DIRECTION('',(0.,-1.,0.));
#1345=DIRECTION('',(1.,0.,0.));
#1346=DIRECTION('',(1.08834364864854E-014,1.,0.));
#1347=DIRECTION('',(1.,-1.0842021724855E-014,0.));
#1348=DIRECTION('',(0.,-1.,0.));
#1349=DIRECTION('',(1.,0.,0.));
#1350=DIRECTION('',(-1.,3.4010739020267E-016,0.));
#1351=DIRECTION('',(0.,-1.,0.));
#1352=DIRECTION('',(1.,0.,0.));
#1353=DIRECTION('',(0.,1.,0.));
#1354=DIRECTION('',(2.07496185449566E-016,1.,2.37169225231204E-015));
#1355=DIRECTION('',(0.,0.,1.));
#1356=DIRECTION('',(0.,1.,0.));
#1357=DIRECTION('',(-1.,0.,0.));
#1358=DIRECTION('',(-0.0868265938642464,0.0868265938642467,-0.992432509138967));
#1359=DIRECTION('',(0.,-0.996194698091746,-0.0871557427476572));
#1360=DIRECTION('',(0.,-1.,0.));
#1361=DIRECTION('',(1.,0.,0.));
#1362=DIRECTION('',(-6.60308925430144E-016,6.18358099514976E-016,-1.));
#1363=DIRECTION('',(0.707106781186547,-0.707106781186548,-9.04154124218323E-016));
#1364=DIRECTION('',(0.0868265938642476,-0.0868265938642476,0.992432509138967));
#1365=DIRECTION('',(0.,-0.996194698091746,-0.0871557427476572));
#1366=DIRECTION('',(-0.0868265938642475,0.0868265938642476,0.992432509138967));
#1367=DIRECTION('',(0.,-0.996194698091746,0.0871557427476582));
#1368=DIRECTION('',(0.,-1.,0.));
#1369=DIRECTION('',(-0.998822965871716,0.,0.0485044621372982));
#1370=DIRECTION('',(0.,1.,0.));
#1371=DIRECTION('',(-0.998822965871716,0.,0.0485044621372982));
#1372=DIRECTION('',(-0.0485044621372982,0.,-0.998822965871716));
#1373=DIRECTION('',(0.998822965871716,0.,-0.0485044621372982));
#1374=DIRECTION('',(0.,1.,0.));
#1375=DIRECTION('',(0.998822965871716,0.,-0.0485044621372981));
#1376=DIRECTION('',(0.,1.,0.));
#1377=DIRECTION('',(0.998822965871716,0.,-0.0485044621372981));
#1378=DIRECTION('',(0.0485044621372981,0.,0.998822965871716));
#1379=DIRECTION('',(-0.998822965871716,0.,0.0485044621372981));
#1380=DIRECTION('',(0.,1.,0.));
#1381=DIRECTION('',(0.999999999999999,0.,0.));
#1382=DIRECTION('',(0.,1.,0.));
#1383=DIRECTION('',(0.999999999999999,0.,0.));
#1384=DIRECTION('',(0.,1.,0.));
#1385=DIRECTION('',(0.,1.,0.));
#1386=DIRECTION('',(-0.999999999999999,0.,0.));
#1387=DIRECTION('',(-2.39291696701386E-015,0.,-1.));
#1388=DIRECTION('',(-2.39291696701386E-015,0.,-1.));
#1389=DIRECTION('',(0.,1.,0.));
#1390=DIRECTION('',(1.,0.,-2.39291696701386E-015));
#1391=DIRECTION('',(2.39218367337202E-015,0.,1.));
#1392=DIRECTION('',(0.,1.,0.));
#1393=DIRECTION('',(1.,0.,0.));
#1394=DIRECTION('',(0.,1.,0.));
#1395=DIRECTION('',(1.,0.,0.));
#1396=DIRECTION('',(0.,1.,0.));
#1397=DIRECTION('',(0.,1.,0.));
#1398=DIRECTION('',(-1.,0.,0.));
#1399=DIRECTION('',(-1.,0.,-1.39016132092707E-016));
#1400=DIRECTION('',(-1.,0.,-1.39016132092707E-016));
#1401=DIRECTION('',(0.,1.,0.));
#1402=DIRECTION('',(1.39016132092707E-016,0.,-1.));
#1403=DIRECTION('',(1.,0.,1.38994718512642E-016));
#1404=DIRECTION('',(0.,0.,1.));
#1405=DIRECTION('',(0.,0.,1.));
#1406=DIRECTION('',(0.,1.,0.));
#1407=DIRECTION('',(-1.,0.,0.));
#1408=DIRECTION('',(0.,-1.,0.));
#1409=DIRECTION('',(1.,0.,-4.28054188315464E-016));
#1410=DIRECTION('',(1.,0.,-4.28054188315464E-016));
#1411=DIRECTION('',(0.,1.,0.));
#1412=DIRECTION('',(4.28054188315464E-016,0.,1.));
#1413=DIRECTION('',(-1.,0.,4.28043017697277E-016));
#1414=DIRECTION('',(0.,-1.,0.));
#1415=DIRECTION('',(0.999999999999994,0.,0.));
#1416=DIRECTION('',(0.,-1.,0.));
#1417=DIRECTION('',(0.999999999999994,0.,0.));
#1418=DIRECTION('',(0.,1.,0.));
#1419=DIRECTION('',(0.,1.,0.));
#1420=DIRECTION('',(-0.999999999999994,0.,0.));
#1421=DIRECTION('',(-1.19645848350693E-015,0.,1.));
#1422=DIRECTION('',(-1.19645848350693E-015,0.,1.));
#1423=DIRECTION('',(0.,1.,0.));
#1424=DIRECTION('',(-1.,0.,-1.19645848350693E-015));
#1425=DIRECTION('',(1.196959198424E-015,0.,-1.));
#1426=DIRECTION('',(0.,-1.,0.));
#1427=DIRECTION('',(0.999999999999994,0.,0.));
#1428=DIRECTION('',(0.,-1.,0.));
#1429=DIRECTION('',(0.999999999999994,0.,0.));
#1430=DIRECTION('',(0.,1.,0.));
#1431=DIRECTION('',(-0.999999999999994,0.,0.));
#1432=DIRECTION('',(0.0871557427476583,0.,-0.996194698091746));
#1433=DIRECTION('',(-0.0871557427476578,0.,-0.996194698091746));
#1434=DIRECTION('',(0.,1.,0.));
#1435=DIRECTION('',(-1.,0.,0.));
#1436=DIRECTION('',(0.0871557427476583,0.,-0.996194698091746));
#1437=DIRECTION('',(-0.0871557427476578,0.,-0.996194698091746));
#1438=DIRECTION('',(0.,1.,0.));
#1439=DIRECTION('',(-1.,0.,0.));
#1440=DIRECTION('',(0.,-1.,0.));
#1441=DIRECTION('',(0.996194698091745,0.,0.0871557427476582));
#1442=DIRECTION('',(-0.0871557427476582,0.,0.996194698091746));
#1443=DIRECTION('',(0.996194698091746,0.,-0.0871557427476578));
#1444=DIRECTION('',(0.0871557427476578,0.,0.996194698091746));
#1445=DIRECTION('',(0.,1.,0.));
#1446=DIRECTION('',(0.998822965871716,0.,-0.0485044621373021));
#1447=DIRECTION('',(0.,-1.,0.));
#1448=DIRECTION('',(0.998822965871716,0.,-0.0485044621373021));
#1449=DIRECTION('',(-0.0485044621373021,0.,-0.998822965871716));
#1450=DIRECTION('',(-0.998822965871716,0.,0.0485044621373021));
#1451=DIRECTION('',(0.,-1.,0.));
#1452=DIRECTION('',(-0.998822965871716,0.,0.0485044621373021));
#1453=DIRECTION('',(0.,-1.,0.));
#1454=DIRECTION('',(-0.998822965871716,0.,0.0485044621373021));
#1455=DIRECTION('',(0.0485044621373021,0.,0.998822965871716));
#1456=DIRECTION('',(0.998822965871716,0.,-0.0485044621373021));
#1457=DIRECTION('',(0.,-1.,0.));
#1458=DIRECTION('',(-0.998822965871716,0.,0.0485044621373019));
#1459=DIRECTION('',(0.,-1.,0.));
#1460=DIRECTION('',(-0.998822965871716,0.,0.0485044621373019));
#1461=DIRECTION('',(0.,-1.,0.));
#1462=DIRECTION('',(0.,-1.,0.));
#1463=DIRECTION('',(0.998822965871716,0.,-0.0485044621373019));
#1464=DIRECTION('',(-4.00374178255447E-015,0.,-1.));
#1465=DIRECTION('',(-4.00374178255447E-015,0.,-1.));
#1466=DIRECTION('',(0.,-1.,0.));
#1467=DIRECTION('',(-1.,0.,4.00374178255447E-015));
#1468=DIRECTION('',(4.00374178255447E-015,0.,1.));
#1469=DIRECTION('',(0.,-1.,0.));
#1470=DIRECTION('',(-0.998822965871716,0.,0.0485044621373024));
#1471=DIRECTION('',(0.,-1.,0.));
#1472=DIRECTION('',(-0.998822965871716,0.,0.0485044621373024));
#1473=DIRECTION('',(0.,-1.,0.));
#1474=DIRECTION('',(0.,-1.,0.));
#1475=DIRECTION('',(0.998822965871716,0.,-0.0485044621373024));
#1476=DIRECTION('',(1.,0.,-3.50414142147315E-015));
#1477=DIRECTION('',(1.,0.,-3.50414142147315E-015));
#1478=DIRECTION('',(0.,-1.,0.));
#1479=DIRECTION('',(-3.50414142147315E-015,0.,-1.));
#1480=DIRECTION('',(-1.,0.,3.50414142147315E-015));
#1481=DIRECTION('',(7.59808882477842E-015,0.,1.));
#1482=DIRECTION('',(7.59808882477842E-015,0.,1.));
#1483=DIRECTION('',(0.,-1.,0.));
#1484=DIRECTION('',(1.,0.,-7.59808882477842E-015));
#1485=DIRECTION('',(-7.59808882477842E-015,0.,-1.));
#1486=DIRECTION('',(-1.,0.,3.50414142147315E-015));
#1487=DIRECTION('',(-1.,0.,3.50414142147315E-015));
#1488=DIRECTION('',(0.,-1.,0.));
#1489=DIRECTION('',(3.50414142147315E-015,0.,1.));
#1490=DIRECTION('',(1.,0.,-3.40005801291454E-015));
#1491=DIRECTION('',(0.,1.,0.));
#1492=DIRECTION('',(-0.998822965871716,0.,0.0485044621373017));
#1493=DIRECTION('',(0.,1.,0.));
#1494=DIRECTION('',(-0.998822965871716,0.,0.0485044621373017));
#1495=DIRECTION('',(0.,-1.,0.));
#1496=DIRECTION('',(0.,-1.,0.));
#1497=DIRECTION('',(0.998822965871716,0.,-0.0485044621373017));
#1498=DIRECTION('',(5.09314812546791E-015,0.,1.));
#1499=DIRECTION('',(5.09314812546791E-015,0.,1.));
#1500=DIRECTION('',(0.,-1.,0.));
#1501=DIRECTION('',(1.,0.,-5.09314812546791E-015));
#1502=DIRECTION('',(-5.09314812546791E-015,0.,-1.));
#1503=DIRECTION('',(0.,1.,0.));
#1504=DIRECTION('',(-0.998822965871716,0.,0.0485044621373028));
#1505=DIRECTION('',(0.,1.,0.));
#1506=DIRECTION('',(-0.998822965871716,0.,0.0485044621373028));
#1507=DIRECTION('',(0.,-1.,0.));
#1508=DIRECTION('',(0.998822965871716,0.,-0.0485044621373028));
#1509=DIRECTION('',(-0.0871557427476583,0.,-0.996194698091746));
#1510=DIRECTION('',(0.0871557427476582,0.,-0.996194698091746));
#1511=DIRECTION('',(0.,-1.,0.));
#1512=DIRECTION('',(0.998822965871716,0.,-0.0485044621373022));
#1513=DIRECTION('',(0.0871557427476582,0.,-0.996194698091746));
#1514=DIRECTION('',(-0.0871557427476583,0.,-0.996194698091746));
#1515=DIRECTION('',(0.,-1.,0.));
#1516=DIRECTION('',(0.998822965871716,0.,-0.0485044621373022));
#1517=DIRECTION('',(0.,-1.,0.));
#1518=DIRECTION('',(-0.996194698091745,0.,-0.0871557427476581));
#1519=DIRECTION('',(0.0871557427476581,0.,-0.996194698091746));
#1520=DIRECTION('',(-0.996194698091745,0.,0.0871557427476582));
#1521=DIRECTION('',(-0.0871557427476582,0.,-0.996194698091746));
#1522=CARTESIAN_POINT('',(0.,0.,0.));
#1523=CARTESIAN_POINT('',(8.232255601755,-3.,2.57500000000001));
#1524=CARTESIAN_POINT('',(8.232255601755,-2.83483040937639,2.57500000000001));
#1525=CARTESIAN_POINT('',(8.232255601755,2.63483040937639,2.57500000000001));
#1526=CARTESIAN_POINT('',(1.68928828908083,2.63483040937639,2.57500000000001));
#1527=CARTESIAN_POINT('',(1.76259478300222,2.63483040937639,2.57500000000001));
#1528=CARTESIAN_POINT('',(1.76259478300222,-3.,2.57500000000001));
#1529=CARTESIAN_POINT('',(1.76259478300222,-2.83483040937639,2.57500000000001));
#1530=CARTESIAN_POINT('',(1.68928828908083,-2.83483040937639,2.57500000000001));
#1531=CARTESIAN_POINT('',(1.68928828908083,-3.,2.57500000000001));
#1532=CARTESIAN_POINT('',(8.39742519237861,-3.,1.52500000000001));
#1533=CARTESIAN_POINT('',(8.39742519237861,-2.92030442415266,1.52500000000001));
#1534=CARTESIAN_POINT('',(8.39742519237861,2.72030442415266,1.52500000000001));
#1535=CARTESIAN_POINT('',(8.26313007911284,2.58600931088689,3.06000016863302));
#1536=CARTESIAN_POINT('',(8.31195117760234,2.63483040937639,2.50197245941983));
#1537=CARTESIAN_POINT('',(8.31195117760234,-3.,2.50197245941983));
#1538=CARTESIAN_POINT('',(8.31195117760234,-2.83483040937639,2.50197245941983));
#1539=CARTESIAN_POINT('',(8.30685545204483,-2.82973468381888,2.56021686906265));
#1540=CARTESIAN_POINT('',(8.30556209567639,-3.,2.57500000000001));
#1541=CARTESIAN_POINT('',(8.31868539520528,-3.,0.625000000000012));
#1542=CARTESIAN_POINT('',(8.31868539520528,-2.84156462697933,0.625000000000012));
#1543=CARTESIAN_POINT('',(8.31868539520528,2.64156462697933,0.625000000000012));
#1544=CARTESIAN_POINT('',(8.35430063302851,2.67717986480256,1.03208403109483));
#1545=CARTESIAN_POINT('',(8.3980260059605,-2.92090523773455,1.53186733066521));
#1546=CARTESIAN_POINT('',(8.39742519237861,-3.,1.52500000000001));
#1547=CARTESIAN_POINT('',(8.31868539520528,2.72126020282667,0.625000000000012));
#1548=CARTESIAN_POINT('',(7.53761757124328,2.72126020282667,0.625000000000012));
#1549=CARTESIAN_POINT('',(8.23898981935794,2.72126020282667,0.625000000000012));
#1550=CARTESIAN_POINT('',(8.23837980820181,2.6409546158232,0.625000000000012));
#1551=CARTESIAN_POINT('',(8.23837980820181,-2.8409546158232,0.625000000000012));
#1552=CARTESIAN_POINT('',(8.23898981935794,-2.92126020282667,0.625000000000012));
#1553=CARTESIAN_POINT('',(8.31868539520528,-2.92126020282667,0.625000000000012));
#1554=CARTESIAN_POINT('',(7.53761757124328,-2.92126020282667,0.625000000000012));
#1555=CARTESIAN_POINT('',(7.53761757124328,-3.,0.625000000000012));
#1556=CARTESIAN_POINT('',(8.31868539520528,-3.,0.625000000000012));
#1557=CARTESIAN_POINT('',(7.53932756915122,-2.92181853789848,0.631381799073285));
#1558=CARTESIAN_POINT('',(7.49742519237861,-2.90813690329778,0.475000000000012));
#1559=CARTESIAN_POINT('',(7.49742519237861,-3.,0.475000000000012));
#1560=CARTESIAN_POINT('',(7.49742519237861,2.70813690329778,0.475000000000012));
#1561=CARTESIAN_POINT('',(7.41336854687655,2.68069138831516,0.161296328272513));
#1562=CARTESIAN_POINT('',(7.53761757124328,-3.,0.625000000000012));
#1563=CARTESIAN_POINT('',(2.49742519237861,-2.90813690329778,0.475000000000012));
#1564=CARTESIAN_POINT('',(2.49742519237861,-2.90813690329778,0.475000000000012));
#1565=CARTESIAN_POINT('',(2.49742519237861,-3.,0.475000000000012));
#1566=CARTESIAN_POINT('',(2.49742519237861,2.70813690329778,0.475000000000012));
#1567=CARTESIAN_POINT('',(7.49742519237861,2.70813690329778,0.475000000000012));
#1568=CARTESIAN_POINT('',(7.49742519237861,-3.,0.475000000000012));
#1569=CARTESIAN_POINT('',(2.49543019481934,-2.90878829421489,0.482445432252164));
#1570=CARTESIAN_POINT('',(2.45723281351394,-2.92126020282667,0.625000000000012));
#1571=CARTESIAN_POINT('',(2.45723281351394,-3.,0.625000000000012));
#1572=CARTESIAN_POINT('',(2.45723281351394,2.72126020282667,0.625000000000012));
#1573=CARTESIAN_POINT('',(2.62138921709402,2.66766114463158,0.012359961451391));
#1574=CARTESIAN_POINT('',(2.49742519237861,-3.,0.475000000000012));
#1575=CARTESIAN_POINT('',(1.67616498955194,-3.,0.625000000000012));
#1576=CARTESIAN_POINT('',(1.67616498955194,-2.84156462697933,0.625000000000012));
#1577=CARTESIAN_POINT('',(1.67616498955194,2.64156462697933,0.625000000000012));
#1578=CARTESIAN_POINT('',(1.75647057655541,2.6409546158232,0.625000000000012));
#1579=CARTESIAN_POINT('',(1.75586056539928,2.72126020282667,0.625000000000012));
#1580=CARTESIAN_POINT('',(2.45723281351394,2.72126020282667,0.625000000000012));
#1581=CARTESIAN_POINT('',(2.45723281351394,-2.92126020282667,0.625000000000012));
#1582=CARTESIAN_POINT('',(1.75586056539928,-2.92126020282667,0.625000000000012));
#1583=CARTESIAN_POINT('',(1.75647057655541,-2.8409546158232,0.625000000000012));
#1584=CARTESIAN_POINT('',(2.45723281351394,-3.,0.625000000000012));
#1585=CARTESIAN_POINT('',(1.59742519237861,-3.,1.52500000000001));
#1586=CARTESIAN_POINT('',(1.59742519237861,-2.92030442415266,1.52500000000001));
#1587=CARTESIAN_POINT('',(1.59742519237861,2.72030442415266,1.52500000000001));
#1588=CARTESIAN_POINT('',(1.71869594079928,2.59903367573199,0.138869002756695));
#1589=CARTESIAN_POINT('',(1.6749705678673,-2.84275904866398,0.638652302327069));
#1590=CARTESIAN_POINT('',(1.67616498955194,-3.,0.625000000000012));
#1591=CARTESIAN_POINT('',(1.68289920715488,-3.,2.50197245941983));
#1592=CARTESIAN_POINT('',(1.68289920715488,-2.83483040937639,2.50197245941983));
#1593=CARTESIAN_POINT('',(1.68289920715488,2.63483040937639,2.50197245941983));
#1594=CARTESIAN_POINT('',(1.64054975172871,2.67717986480256,2.01791596890519));
#1595=CARTESIAN_POINT('',(1.59682437879672,-2.92090523773455,1.51813266933481));
#1596=CARTESIAN_POINT('',(1.59742519237861,-3.,1.52500000000001));
#1597=CARTESIAN_POINT('',(1.68928828908083,-2.91452598522373,2.50197245941983));
#1598=CARTESIAN_POINT('',(8.232255601755,-2.91452598522373,2.50197245941983));
#1599=CARTESIAN_POINT('',(1.76259478300222,-2.91452598522373,2.50197245941983));
#1600=CARTESIAN_POINT('',(1.76838305134628,-2.90873771687967,2.56813266933482));
#1601=CARTESIAN_POINT('',(1.67712076822595,-3.,1.52500000000001));
#1602=CARTESIAN_POINT('',(1.68928828908083,-3.,1.52500000000001));
#1603=CARTESIAN_POINT('',(8.31772961653127,-3.,1.52500000000001));
#1604=CARTESIAN_POINT('',(8.17658818864998,-2.85885857211871,3.13825390276953));
#1605=CARTESIAN_POINT('',(1.68928828908083,-2.90813690329778,2.57500000000001));
#1606=CARTESIAN_POINT('',(8.48928828908083,2.8,1.52500000000001));
#1607=CARTESIAN_POINT('',(1.67712076822595,2.8,1.52500000000001));
#1608=CARTESIAN_POINT('',(8.31772961653127,2.8,1.52500000000001));
#1609=CARTESIAN_POINT('',(1.72847672776467,2.74864404046128,2.11200130358605));
#1610=CARTESIAN_POINT('',(1.76259478300222,2.71452598522373,2.50197245941983));
#1611=CARTESIAN_POINT('',(8.48928828908083,2.71452598522373,2.50197245941983));
#1612=CARTESIAN_POINT('',(8.232255601755,2.71452598522373,2.50197245941983));
#1613=CARTESIAN_POINT('',(8.31902297289971,2.80129335636844,1.51021686906264));
#1614=CARTESIAN_POINT('',(8.48928828908083,2.8,1.52500000000001));
#1615=CARTESIAN_POINT('',(1.72847672776467,2.74864404046128,0.93799869641398));
#1616=CARTESIAN_POINT('',(8.31902297289971,2.80129335636844,1.53978313093738));
#1617=CARTESIAN_POINT('',(8.48928828908083,2.8,1.52500000000001));
#1618=CARTESIAN_POINT('',(1.81216976723192,-2.86495100099402,-0.018617122073863));
#1619=CARTESIAN_POINT('',(8.22037490453563,-2.90264528800436,0.412230549969563));
#1620=CARTESIAN_POINT('',(7.49742519237861,-2.90813690329778,0.475000000000012));
#1621=CARTESIAN_POINT('',(8.31711960537514,-2.91969441299653,1.52500000000001));
#1622=CARTESIAN_POINT('',(8.31833043011316,-2.92090523773455,1.53883979008502));
#1623=CARTESIAN_POINT('',(8.232255601755,-2.83483040937639,2.49500000000001));
#1624=CARTESIAN_POINT('',(8.22715987619749,-2.82973468381888,2.55324440964283));
#1625=CARTESIAN_POINT('',(8.31711960537514,2.71969441299653,1.52500000000001));
#1626=CARTESIAN_POINT('',(8.27460505718117,2.67717986480256,1.03905649051465));
#1627=CARTESIAN_POINT('',(8.232255601755,-2.83483040937639,2.49500000000001));
#1628=CARTESIAN_POINT('',(8.232255601755,-2.83483040937639,2.49500000000001));
#1629=CARTESIAN_POINT('',(8.232255601755,-2.83483040937639,2.49500000000001));
#1630=CARTESIAN_POINT('',(1.67773077938208,-2.91969441299653,1.52500000000001));
#1631=CARTESIAN_POINT('',(1.75466614371463,-2.84275904866398,0.645624761746883));
#1632=CARTESIAN_POINT('',(8.232255601755,2.63483040937639,2.49500000000001));
#1633=CARTESIAN_POINT('',(8.1834345032655,2.58600931088689,3.05302770921321));
#1634=CARTESIAN_POINT('',(8.232255601755,2.63483040937639,2.49500000000001));
#1635=CARTESIAN_POINT('',(8.232255601755,-3.,2.49500000000001));
#1636=CARTESIAN_POINT('',(1.76259478300222,-2.83483040937639,2.49500000000001));
#1637=CARTESIAN_POINT('',(1.68928828908083,-2.83483040937639,2.49500000000001));
#1638=CARTESIAN_POINT('',(1.76259478300222,-2.83483040937639,2.49500000000001));
#1639=CARTESIAN_POINT('',(1.67651995464406,-2.92090523773455,1.511160209915));
#1640=CARTESIAN_POINT('',(8.232255601755,2.63483040937639,2.49500000000001));
#1641=CARTESIAN_POINT('',(8.232255601755,2.63483040937639,2.49500000000001));
#1642=CARTESIAN_POINT('',(1.76259478300222,-2.83483040937639,2.49500000000001));
#1643=CARTESIAN_POINT('',(1.76259478300222,-2.83483040937639,2.49500000000001));
#1644=CARTESIAN_POINT('',(1.76259478300222,2.63483040937639,2.49500000000001));
#1645=CARTESIAN_POINT('',(1.68928828908083,2.63483040937639,2.49500000000001));
#1646=CARTESIAN_POINT('',(1.76259478300222,2.63483040937639,2.49500000000001));
#1647=CARTESIAN_POINT('',(1.76259478300222,-3.,2.49500000000001));
#1648=CARTESIAN_POINT('',(1.76259478300222,2.63483040937639,2.49500000000001));
#1649=CARTESIAN_POINT('',(1.76259478300222,2.63483040937639,2.49500000000001));
#1650=CARTESIAN_POINT('',(1.67773077938208,2.71969441299653,1.52500000000001));
#1651=CARTESIAN_POINT('',(1.72024532757605,2.67717986480256,2.01094350948538));
#1652=CARTESIAN_POINT('',(1.79839151664662,2.59903367573199,0.145841462176507));
#1653=CARTESIAN_POINT('centre point',(4.99742433381856,-0.100000000810635,
1.54119616274182));
#1654=CARTESIAN_POINT('',(8.39218026014807,-1.6,1.46505015028046));
#1655=CARTESIAN_POINT('',(8.39218026014807,1.4,1.46505015028046));
#1656=CARTESIAN_POINT('',(8.39218026014807,-1.6,1.46505015028046));
#1657=CARTESIAN_POINT('',(8.70209887541681,1.4,1.45));
#1658=CARTESIAN_POINT('',(8.70209887541681,1.4,1.45));
#1659=CARTESIAN_POINT('',(8.70209887541681,-1.6,1.45));
#1660=CARTESIAN_POINT('',(8.70209887541681,-1.6,1.45));
#1661=CARTESIAN_POINT('',(8.70209887541681,-1.6,1.45));
#1662=CARTESIAN_POINT('',(8.70209887541681,-1.6,1.45));
#1663=CARTESIAN_POINT('',(8.38950450913579,-1.6,1.61553382373907));
#1664=CARTESIAN_POINT('',(8.38950450913579,-1.6,1.61553382373907));
#1665=CARTESIAN_POINT('',(8.38950450913579,1.4,1.61553382373907));
#1666=CARTESIAN_POINT('',(4.35470943550196,-1.6,1.81147001220068));
#1667=CARTESIAN_POINT('',(8.70938311854017,-1.6,1.6));
#1668=CARTESIAN_POINT('',(8.70938311854017,-1.6,1.6));
#1669=CARTESIAN_POINT('',(8.70938311854017,1.4,1.6));
#1670=CARTESIAN_POINT('',(4.35470943550196,1.4,1.81147001220068));
#1671=CARTESIAN_POINT('',(4.35470943550196,-1.6,1.81147001220068));
#1672=CARTESIAN_POINT('',(8.69724842920308,1.4,1.35011770341282));
#1673=CARTESIAN_POINT('',(8.94742519237862,1.4,1.35011770341282));
#1674=CARTESIAN_POINT('',(8.69724842920308,-1.6,1.35011770341282));
#1675=CARTESIAN_POINT('',(8.94742519237862,-1.6,1.35011770341282));
#1676=CARTESIAN_POINT('',(8.94742519237862,-1.6,1.35011770341282));
#1677=CARTESIAN_POINT('',(8.69724842920308,-1.6,1.35011770341282));
#1678=CARTESIAN_POINT('',(8.94742519237862,1.4,1.35011770341282));
#1679=CARTESIAN_POINT('',(8.94742519237862,1.4,0.625176763175526));
#1680=CARTESIAN_POINT('',(8.94742519237862,-1.6,1.35011770341282));
#1681=CARTESIAN_POINT('',(8.94742519237862,-1.6,0.625176763175526));
#1682=CARTESIAN_POINT('',(8.94742519237862,-1.6,0.625176763175526));
#1683=CARTESIAN_POINT('',(8.94742519237862,-1.6,1.35011770341282));
#1684=CARTESIAN_POINT('',(8.69724842920308,1.4,0.625176763175526));
#1685=CARTESIAN_POINT('',(8.69724842920308,1.4,0.374999999999994));
#1686=CARTESIAN_POINT('',(8.69724842920308,-1.6,0.625176763175526));
#1687=CARTESIAN_POINT('',(8.69724842920308,-1.6,0.374999999999994));
#1688=CARTESIAN_POINT('',(8.69724842920308,-1.6,0.374999999999994));
#1689=CARTESIAN_POINT('',(8.69724842920308,-1.6,0.625176763175526));
#1690=CARTESIAN_POINT('',(8.69724842920308,1.4,0.374999999999994));
#1691=CARTESIAN_POINT('',(7.74742519237862,1.4,0.374999999999994));
#1692=CARTESIAN_POINT('',(8.69724842920308,-1.6,0.374999999999994));
#1693=CARTESIAN_POINT('',(7.74742519237862,-1.6,0.374999999999994));
#1694=CARTESIAN_POINT('',(7.74742519237862,-1.6,0.374999999999994));
#1695=CARTESIAN_POINT('',(8.69724842920308,-1.6,0.374999999999994));
#1696=CARTESIAN_POINT('',(7.74742519237862,1.4,0.374999999999994));
#1697=CARTESIAN_POINT('',(7.74742519237862,1.4,0.525176763175526));
#1698=CARTESIAN_POINT('',(7.74742519237862,-1.6,0.374999999999994));
#1699=CARTESIAN_POINT('',(7.74742519237862,-1.6,0.525176763175526));
#1700=CARTESIAN_POINT('',(7.74742519237862,-1.6,0.525176763175526));
#1701=CARTESIAN_POINT('',(7.74742519237862,-1.6,0.374999999999994));
#1702=CARTESIAN_POINT('',(7.74742519237862,1.4,0.525176763175526));
#1703=CARTESIAN_POINT('',(8.69724842920308,1.4,0.525176763175526));
#1704=CARTESIAN_POINT('',(7.74742519237862,-1.6,0.525176763175526));
#1705=CARTESIAN_POINT('',(8.69724842920308,-1.6,0.525176763175526));
#1706=CARTESIAN_POINT('',(8.69724842920308,-1.6,0.525176763175526));
#1707=CARTESIAN_POINT('',(7.74742519237862,-1.6,0.525176763175526));
#1708=CARTESIAN_POINT('',(8.69724842920308,1.4,0.625176763175526));
#1709=CARTESIAN_POINT('',(8.79724842920309,1.4,0.625176763175526));
#1710=CARTESIAN_POINT('',(8.69724842920308,-1.6,0.625176763175526));
#1711=CARTESIAN_POINT('',(8.79724842920309,-1.6,0.625176763175526));
#1712=CARTESIAN_POINT('',(8.79724842920309,-1.6,0.625176763175526));
#1713=CARTESIAN_POINT('',(8.69724842920308,-1.6,0.625176763175526));
#1714=CARTESIAN_POINT('',(8.79724842920309,1.4,0.625176763175526));
#1715=CARTESIAN_POINT('',(8.79724842920309,1.4,1.35011770341282));
#1716=CARTESIAN_POINT('',(8.79724842920309,-1.6,0.625176763175526));
#1717=CARTESIAN_POINT('',(8.79724842920309,-1.6,1.35011770341282));
#1718=CARTESIAN_POINT('',(8.79724842920309,-1.6,1.35011770341282));
#1719=CARTESIAN_POINT('',(8.79724842920309,-1.6,0.625176763175526));
#1720=CARTESIAN_POINT('',(8.69724842920308,1.4,1.35011770341282));
#1721=CARTESIAN_POINT('',(8.69724842920308,-1.6,1.35011770341282));
#1722=CARTESIAN_POINT('',(8.69724842920308,-1.6,1.35011770341282));
#1723=CARTESIAN_POINT('',(8.41488668276615,-1.6,1.32541425158621));
#1724=CARTESIAN_POINT('',(8.39742519237861,-1.6,1.525));
#1725=CARTESIAN_POINT('',(8.38451869065758,-1.6,1.37747801028298));
#1726=CARTESIAN_POINT('',(8.69724842920308,-1.6,1.35011770341282));
#1727=CARTESIAN_POINT('',(8.41488668276615,1.4,1.32541425158621));
#1728=CARTESIAN_POINT('',(8.39742519237861,1.4,1.525));
#1729=CARTESIAN_POINT('',(8.38451869065758,1.4,1.37747801028298));
#1730=CARTESIAN_POINT('',(8.69724842920308,1.4,1.35011770341282));
#1731=CARTESIAN_POINT('',(8.39742519237861,-3.,1.525));
#1732=CARTESIAN_POINT('',(8.30556209567639,-3.,2.575));
#1733=CARTESIAN_POINT('',(8.39742519237861,-3.,1.525));
#1734=CARTESIAN_POINT('centre point',(8.5765733966702,-0.1,0.85118783858897));
#1735=CARTESIAN_POINT('',(1.60114485412959,1.4,1.48248407163774));
#1736=CARTESIAN_POINT('',(1.60114485412959,-1.6,1.48248407163774));
#1737=CARTESIAN_POINT('',(1.60114485412959,1.4,1.48248407163774));
#1738=CARTESIAN_POINT('',(1.30227563859235,-1.6,1.49699764515813));
#1739=CARTESIAN_POINT('',(1.30227563859235,-1.6,1.49699764515813));
#1740=CARTESIAN_POINT('',(1.30227563859235,1.4,1.49699764515813));
#1741=CARTESIAN_POINT('',(1.30227563859235,1.4,1.49699764515813));
#1742=CARTESIAN_POINT('',(1.30227563859235,1.4,1.49699764515813));
#1743=CARTESIAN_POINT('',(1.30227563859235,1.4,1.49699764515813));
#1744=CARTESIAN_POINT('',(1.60682018277856,1.4,1.63238523165538));
#1745=CARTESIAN_POINT('',(1.60682018277856,1.4,1.63238523165538));
#1746=CARTESIAN_POINT('',(1.60682018277856,-1.6,1.63238523165538));
#1747=CARTESIAN_POINT('',(5.69213208017318,1.4,1.43399586435313));
#1748=CARTESIAN_POINT('',(1.30955130791295,1.4,1.64682109003888));
#1749=CARTESIAN_POINT('',(1.30955130791295,1.4,1.64682109003888));
#1750=CARTESIAN_POINT('',(1.30955130791295,-1.6,1.64682109003888));
#1751=CARTESIAN_POINT('',(5.69213208017318,-1.6,1.43399586435313));
#1752=CARTESIAN_POINT('',(5.69213208017318,1.4,1.43399586435313));
#1753=CARTESIAN_POINT('',(1.29742519237862,-1.6,1.39711534857095));
#1754=CARTESIAN_POINT('',(1.04742519237861,-1.6,1.39711534857096));
#1755=CARTESIAN_POINT('',(1.29742519237862,1.4,1.39711534857095));
#1756=CARTESIAN_POINT('',(1.04742519237861,1.4,1.39711534857096));
#1757=CARTESIAN_POINT('',(1.04742519237861,1.4,1.39711534857096));
#1758=CARTESIAN_POINT('',(1.29742519237862,1.4,1.39711534857095));
#1759=CARTESIAN_POINT('',(1.04742519237861,-1.6,1.39711534857096));
#1760=CARTESIAN_POINT('',(1.04742519237862,-1.6,0.625000000000025));
#1761=CARTESIAN_POINT('',(1.04742519237861,1.4,1.39711534857096));
#1762=CARTESIAN_POINT('',(1.04742519237862,1.4,0.625000000000025));
#1763=CARTESIAN_POINT('',(1.04742519237862,1.4,0.625000000000025));
#1764=CARTESIAN_POINT('',(1.04742519237861,1.4,1.39711534857096));
#1765=CARTESIAN_POINT('',(1.29742519237862,-1.6,0.625000000000024));
#1766=CARTESIAN_POINT('',(1.29742519237861,-1.6,0.375000000000022));
#1767=CARTESIAN_POINT('',(1.29742519237862,1.4,0.625000000000024));
#1768=CARTESIAN_POINT('',(1.29742519237861,1.4,0.375000000000022));
#1769=CARTESIAN_POINT('',(1.29742519237861,1.4,0.375000000000022));
#1770=CARTESIAN_POINT('',(1.29742519237862,1.4,0.625000000000024));
#1771=CARTESIAN_POINT('',(1.29742519237861,-1.6,0.375000000000022));
#1772=CARTESIAN_POINT('',(2.24398313570065,-1.6,0.375000000000018));
#1773=CARTESIAN_POINT('',(1.29742519237861,1.4,0.375000000000022));
#1774=CARTESIAN_POINT('',(2.24398313570065,1.4,0.375000000000018));
#1775=CARTESIAN_POINT('',(2.24398313570065,1.4,0.375000000000018));
#1776=CARTESIAN_POINT('',(1.29742519237861,1.4,0.375000000000022));
#1777=CARTESIAN_POINT('',(2.24398313570065,-1.6,0.375000000000018));
#1778=CARTESIAN_POINT('',(2.24398313570065,-1.6,0.525000000000021));
#1779=CARTESIAN_POINT('',(2.24398313570065,1.4,0.375000000000018));
#1780=CARTESIAN_POINT('',(2.24398313570065,1.4,0.525000000000021));
#1781=CARTESIAN_POINT('',(2.24398313570065,1.4,0.525000000000021));
#1782=CARTESIAN_POINT('',(2.24398313570065,1.4,0.375000000000018));
#1783=CARTESIAN_POINT('',(2.24398313570065,-1.6,0.525000000000021));
#1784=CARTESIAN_POINT('',(1.29742519237862,-1.6,0.525000000000024));
#1785=CARTESIAN_POINT('',(2.24398313570065,1.4,0.525000000000021));
#1786=CARTESIAN_POINT('',(1.29742519237862,1.4,0.525000000000024));
#1787=CARTESIAN_POINT('',(1.29742519237862,1.4,0.525000000000024));
#1788=CARTESIAN_POINT('',(2.24398313570065,1.4,0.525000000000021));
#1789=CARTESIAN_POINT('',(1.29742519237862,-1.6,0.625000000000024));
#1790=CARTESIAN_POINT('',(1.19742519237862,-1.6,0.625000000000025));
#1791=CARTESIAN_POINT('',(1.29742519237862,1.4,0.625000000000024));
#1792=CARTESIAN_POINT('',(1.19742519237862,1.4,0.625000000000025));
#1793=CARTESIAN_POINT('',(1.19742519237862,1.4,0.625000000000025));
#1794=CARTESIAN_POINT('',(1.29742519237862,1.4,0.625000000000024));
#1795=CARTESIAN_POINT('',(1.19742519237861,-1.6,0.625000000000025));
#1796=CARTESIAN_POINT('',(1.19742519237862,-1.6,1.39711534857096));
#1797=CARTESIAN_POINT('',(1.19742519237861,1.4,0.625000000000025));
#1798=CARTESIAN_POINT('',(1.19742519237862,1.4,1.39711534857096));
#1799=CARTESIAN_POINT('',(1.19742519237862,1.4,1.39711534857096));
#1800=CARTESIAN_POINT('',(1.19742519237861,1.4,0.625000000000025));
#1801=CARTESIAN_POINT('',(1.29742519237862,-1.6,1.39711534857095));
#1802=CARTESIAN_POINT('',(1.29742519237862,1.4,1.39711534857095));
#1803=CARTESIAN_POINT('',(1.29742519237862,1.4,1.39711534857095));
#1804=CARTESIAN_POINT('',(1.58404288699433,1.4,1.37203954952614));
#1805=CARTESIAN_POINT('',(1.59742519237861,1.4,1.525));
#1806=CARTESIAN_POINT('',(1.60624982366656,1.4,1.42413400282622));
#1807=CARTESIAN_POINT('',(1.29742519237862,1.4,1.39711534857095));
#1808=CARTESIAN_POINT('',(1.60624982366656,-1.6,1.42413400282622));
#1809=CARTESIAN_POINT('',(1.59742519237861,-1.6,1.525));
#1810=CARTESIAN_POINT('',(1.58404288699433,-1.6,1.37203954952614));
#1811=CARTESIAN_POINT('',(1.29742519237862,-1.6,1.39711534857095));
#1812=CARTESIAN_POINT('',(1.59742519237861,-3.,1.525));
#1813=CARTESIAN_POINT('',(1.67616498955194,-3.,0.625000000000012));
#1814=CARTESIAN_POINT('',(1.59742519237861,-3.,1.525));
#1815=CARTESIAN_POINT('centre point',(1.41174110384997,-0.1,0.870172523065449));
#1816=CARTESIAN_POINT('centre point',(4.99651370151488,-0.100000000787743,
1.52198076577597));
#1817=MECHANICAL_DESIGN_GEOMETRIC_PRESENTATION_REPRESENTATION('',(#41,#42,
#43),#1818);
#1818=(
GEOMETRIC_REPRESENTATION_CONTEXT(3)
GLOBAL_UNCERTAINTY_ASSIGNED_CONTEXT((#1819))
GLOBAL_UNIT_ASSIGNED_CONTEXT((#1825,#1821,#1820))
REPRESENTATION_CONTEXT('P27-SMC-','TOP_LEVEL_ASSEMBLY_PART')
);
#1819=UNCERTAINTY_MEASURE_WITH_UNIT(LENGTH_MEASURE(2.E-005),#1825,
'DISTANCE_ACCURACY_VALUE','Maximum Tolerance applied to model');
#1820=(
NAMED_UNIT(*)
SI_UNIT($,.STERADIAN.)
SOLID_ANGLE_UNIT()
);
#1821=(
CONVERSION_BASED_UNIT('DEGREE',#1823)
NAMED_UNIT(#1822)
PLANE_ANGLE_UNIT()
);
#1822=DIMENSIONAL_EXPONENTS(0.,0.,0.,0.,0.,0.,0.);
#1823=PLANE_ANGLE_MEASURE_WITH_UNIT(PLANE_ANGLE_MEASURE(0.0174532925),#1824);
#1824=(
NAMED_UNIT(*)
PLANE_ANGLE_UNIT()
SI_UNIT($,.RADIAN.)
);
#1825=(
LENGTH_UNIT()
NAMED_UNIT(*)
SI_UNIT(.MILLI.,.METRE.)
);
#1826=(
LENGTH_UNIT()
NAMED_UNIT(*)
SI_UNIT(.MILLI.,.METRE.)
);
#1827=(
LENGTH_UNIT()
NAMED_UNIT(*)
SI_UNIT(.MILLI.,.METRE.)
);
ENDSEC;
END-ISO-10303-21;
